<svg width="216" height="163" viewBox="0 0 216 163" fill="none" xmlns="http://www.w3.org/2000/svg">
<path d="M10.5 81.5H40.5" stroke="#B29564" stroke-width="3"/>
<g clip-path="url(#clip0_760_27553)">
<path d="M89.6855 36.2061C87.0919 37.8374 84.2583 37.3098 81.3079 37.1073C81.6107 37.3783 81.9136 37.6492 82.1834 37.8888C81.4518 38.1284 80.7592 37.8004 80.2524 37.0446C79.9676 36.6196 79.5628 36.1776 79.098 35.9608C77.5448 35.2364 75.9586 34.569 74.3515 33.9587C72.3695 33.2086 70.3485 33.2399 68.3876 34.0385C67.8808 34.2439 67.3831 34.6004 67.0413 35.0082C66.1837 36.0378 66.4775 37.1073 67.7549 37.9515C66.2287 38.0713 65.1972 36.9961 65.581 35.6271C65.9468 34.318 66.9453 33.5023 68.2256 33.0146C70.1446 32.2817 72.1266 32.2018 74.1326 32.6866C74.5854 32.795 75.0291 32.9262 75.4789 33.0489C76.3694 29.9829 79.026 29.056 81.6467 31.0638C83.1279 32.1961 84.5072 32.6439 86.3812 32.4556C88.5521 32.236 90.4801 33.2257 92.3721 34.1098C93.2567 34.5234 94.1082 34.994 94.9778 35.4303C97.7933 36.8392 100.732 37.0874 103.781 36.2346C103.925 36.1947 104.069 36.1547 104.231 36.189C102.495 37.3612 100.522 37.4068 98.501 37.2499C96.498 37.0931 94.6869 36.4257 92.8879 35.61C91.1788 34.8342 89.3917 34.1897 87.5896 33.6307C86.795 33.3854 85.8745 33.4909 84.975 33.5907C86.3003 35.1223 88.0214 35.6385 90.0244 35.5045C87.9105 36.1776 86.0994 35.4931 84.4832 34.2838C83.8715 33.8275 83.3138 33.6849 82.7501 34.0927C82.1894 34.5006 81.7576 35.071 81.2719 35.5701C81.7906 35.8268 82.2824 36.1776 82.8371 36.3259C85.1219 36.9476 87.4007 36.8193 89.6795 36.2032L89.6855 36.2061ZM82.7441 32.6239C81.6767 32.0563 80.6302 31.3547 79.4698 30.9383C78.8431 30.713 77.9286 30.7957 77.3169 31.0724C76.8132 31.3006 76.4594 31.9879 76.2465 32.5412C76.1475 32.795 76.4414 33.3654 76.7292 33.5394C77.6378 34.087 78.6243 34.5319 79.5988 34.9768C79.7907 35.0653 80.1715 35.0767 80.3004 34.9597C81.074 34.2724 81.8026 33.5366 82.7471 32.621L82.7441 32.6239Z" fill="#B29564"/>
<path d="M140.44 32.8463C141.958 32.7066 143.46 32.4784 144.965 32.4528C146.452 32.4271 147.892 32.8093 149.04 33.7533C149.562 34.1811 150.029 34.7458 150.305 35.339C150.959 36.7508 149.927 38.0114 147.975 37.9401C149.154 37.5494 149.514 36.862 149.379 35.9608C149.247 35.0595 148.659 34.4549 147.799 34.0984C145.913 33.3198 143.967 33.1886 142.024 33.8446C140.584 34.3294 139.172 34.897 137.787 35.5045C136.89 35.898 135.94 36.2118 135.52 37.2699C135.262 37.9173 134.482 38.0941 133.676 37.9515C134.045 37.6749 134.366 37.4324 134.686 37.1929C134.671 37.1045 134.653 37.0189 134.638 36.9305C131.781 37.21 128.866 37.9059 126.258 36.1718C129.148 36.9533 131.982 37.0246 134.782 35.7298C134.443 34.5861 133.601 34.087 132.569 33.8702C132.291 33.8132 131.883 34.0528 131.613 34.2496C130.249 35.2392 128.752 35.8467 126.998 35.7811C126.776 35.7725 126.555 35.6984 126.324 35.5843C128.159 35.5016 129.814 35.0795 131.211 33.6107C129.664 33.2856 128.354 33.4795 127.097 33.9729C125.403 34.6403 123.727 35.3476 122.063 36.0777C119.487 37.2128 116.801 37.595 114.009 37.113C113.202 36.9733 112.441 36.5996 111.697 36.2146C113.838 36.7508 115.994 37.0217 118.123 36.4399C119.514 36.0578 120.825 35.4103 122.156 34.8485C123.643 34.221 125.094 33.508 126.6 32.9205C128.18 32.3045 129.844 32.3159 131.526 32.5298C131.928 32.5811 132.429 32.4071 132.785 32.1875C133.466 31.7711 134.036 31.195 134.719 30.7815C137.301 29.2214 139.844 30.1882 140.446 32.8463H140.44ZM133.355 32.7865C134.132 33.4852 134.875 34.0414 135.46 34.7201C135.835 35.1508 136.087 35.1736 136.545 34.9283C137.34 34.5034 138.135 34.0642 138.977 33.7333C139.919 33.3626 139.919 32.7237 139.658 32.0135C139.34 31.1408 138.554 30.8528 137.655 30.8014C135.805 30.693 134.575 31.7397 133.355 32.7893V32.7865Z" fill="#B29564"/>
<path d="M120.434 33.8161C121.301 31.9851 120.296 30.6047 118.147 30.83C117.31 30.9184 116.443 31.2892 115.733 31.7312C114.8 32.3073 113.985 33.0546 113.16 33.7704C109.994 36.5312 105.949 36.5198 102.807 33.7476C101.964 33.0032 101.067 32.3073 100.162 31.6314C99.2713 30.9669 98.2339 30.676 97.0975 30.8186C95.3794 31.0353 94.7197 32.353 95.6102 33.7476C95.5323 33.7904 95.4513 33.8303 95.3734 33.8731C95.1485 33.4966 94.8127 33.1458 94.7197 32.7437C94.5398 31.9736 94.7887 31.2692 95.5203 30.81C96.9056 29.9401 98.4078 29.7548 99.856 30.5533C100.843 31.0952 101.694 31.8596 102.579 32.5583C103.046 32.9291 103.436 33.3826 103.886 33.7733C106.513 36.0635 109.562 36.0293 112.186 33.7305C113.403 32.6638 114.605 31.563 115.955 30.6589C117.34 29.7319 119.298 29.9259 120.539 30.8671C121.637 31.697 121.586 33.123 120.434 33.8104V33.8161Z" fill="#B29564"/>
</g>
<path d="M88.625 81.5547C88.3906 81.3464 88.1562 81.2422 87.9219 81.2422C87.7135 81.2422 87.4922 81.3594 87.2578 81.5938L85.3047 83.2734L82.0234 85.5781L78.3516 87.6094L74.3672 89.4062L69.0547 90.3438L73.8594 88.2344L77.6094 86.2422L81.0078 84.0547L84.0156 81.6328L85.7344 80.0312C85.9688 79.7708 86.0859 79.5234 86.0859 79.2891C86.0859 79.0547 85.9948 78.8333 85.8125 78.625L84.5234 77.0234L82.5312 73.9375L80.8125 70.5781L79.5234 66.9453L78.8984 64.4844C78.8464 64.224 78.7292 64.0026 78.5469 63.8203C78.3646 63.638 78.0781 63.5469 77.6875 63.5469H71.2812C70.9688 63.2083 70.8125 62.9349 70.8125 62.7266C70.8125 62.6224 70.8646 62.5182 70.9688 62.4141C71.099 62.2839 71.3594 62.2188 71.75 62.2188H85.5781C85.9167 62.2188 86.151 62.1536 86.2812 62.0234C86.4375 61.8672 86.5156 61.6198 86.5156 61.2812V55.4219C86.5156 55.0052 86.6198 54.7057 86.8281 54.5234C87.0365 54.3151 87.3099 54.2109 87.6484 54.2109C88.1172 54.2109 88.5208 54.3802 88.8594 54.7188C89.1979 55.0573 89.4062 55.5781 89.4844 56.2812V61.2812C89.4844 61.6198 89.5495 61.8672 89.6797 62.0234C89.8359 62.1536 90.0833 62.2188 90.4219 62.2188H100.734L101.945 61.0469C102.284 60.7083 102.622 60.5391 102.961 60.5391C103.299 60.5391 103.638 60.6693 103.977 60.9297L105.656 62.3359V62.4531C105.656 62.7917 105.552 63.0651 105.344 63.2734C105.161 63.4557 104.901 63.5469 104.562 63.5469H98.9375C98.2865 63.5469 97.8698 63.8594 97.6875 64.4844L96.8281 67.2578L95.2266 71.0078L93.2734 74.4844L90.9688 77.6875L90.2656 78.4297C90.0833 78.638 89.9922 78.8464 89.9922 79.0547C89.9922 79.2891 90.1094 79.5234 90.3438 79.7578L91.2031 80.4609L94.0938 82.5312L97.2578 84.2891L100.695 85.8516L104.445 87.1406L104.953 87.2969C105.214 87.401 105.409 87.5182 105.539 87.6484C105.669 87.7526 105.734 87.8958 105.734 88.0781C105.734 88.2865 105.578 88.5339 105.266 88.8203L104.523 89.4453C104.107 89.8099 103.651 89.9922 103.156 89.9922C102.896 89.9922 102.622 89.9401 102.336 89.8359L99.5234 88.6641L95.8516 86.9062L92.5312 84.7969L89.5625 82.4531L88.625 81.5547ZM88.5469 76.8281L89.0547 76.2031L91.0859 73.1562L92.7656 69.875L94.0938 66.3203L94.6406 64.3281C94.6927 64.1979 94.7188 64.0807 94.7188 63.9766C94.7188 63.8724 94.6667 63.7812 94.5625 63.7031C94.4844 63.599 94.3021 63.5469 94.0156 63.5469H80.4609C80.1745 63.5469 79.9922 63.5859 79.9141 63.6641C79.8359 63.7422 79.7969 63.8333 79.7969 63.9375C79.7969 64.0417 79.8359 64.1719 79.9141 64.3281L80.7734 66.5547L82.375 69.8359L84.1719 72.8828L86.2812 75.6562C87.0625 76.4896 87.4531 76.9193 87.4531 76.9453C87.6354 77.1276 87.8047 77.2188 87.9609 77.2188C88.1432 77.2188 88.3385 77.0885 88.5469 76.8281ZM139.641 68.9375C139.979 69.224 140.148 69.5365 140.148 69.875C140.148 70.1875 139.953 70.513 139.562 70.8516V78.7812C139.562 79.6667 139.172 80.2917 138.391 80.6562L138 80.8906C137.74 81.0208 137.518 81.0859 137.336 81.0859C137.154 81.0859 136.984 81.0078 136.828 80.8516C136.672 80.6953 136.594 80.4219 136.594 80.0312C136.594 79.9271 136.568 79.862 136.516 79.8359C136.49 79.7839 136.424 79.7578 136.32 79.7578H130.422C130.083 79.7578 129.836 79.8359 129.68 79.9922C129.549 80.1224 129.484 80.3568 129.484 80.6953V82.4531C129.484 82.7917 129.549 83.0391 129.68 83.1953C129.836 83.3255 130.07 83.3906 130.383 83.3906H140.969L142.18 82.1797C142.518 81.8411 142.857 81.6719 143.195 81.6719C143.534 81.6719 143.872 81.8021 144.211 82.0625L145.93 83.5078V83.625C145.93 83.9635 145.826 84.237 145.617 84.4453C145.435 84.6276 145.174 84.7188 144.836 84.7188H130.422C130.083 84.7188 129.836 84.7969 129.68 84.9531C129.549 85.0833 129.484 85.3177 129.484 85.6562V88.2344C129.484 89.1198 129.094 89.7448 128.312 90.1094L127.922 90.3438C127.661 90.474 127.44 90.5391 127.258 90.5391C127.076 90.5391 126.906 90.4609 126.75 90.3047C126.594 90.1484 126.516 89.875 126.516 89.4844V85.6562C126.516 85.3177 126.438 85.0833 126.281 84.9531C126.151 84.7969 125.917 84.7188 125.578 84.7188H111.008C110.695 84.3802 110.539 84.1068 110.539 83.8984C110.539 83.7943 110.591 83.6901 110.695 83.5859C110.826 83.4557 111.086 83.3906 111.477 83.3906H125.578C125.917 83.3906 126.151 83.3255 126.281 83.1953C126.438 83.0391 126.516 82.7917 126.516 82.4531V80.6953C126.516 80.3568 126.438 80.1224 126.281 79.9922C126.151 79.8359 125.93 79.7578 125.617 79.7578L119.758 79.9141C119.289 80.2266 118.82 80.487 118.352 80.6953L117.609 81.0859C117.349 81.2161 117.115 81.2812 116.906 81.2812C116.724 81.2812 116.555 81.2161 116.398 81.0859C116.268 80.9297 116.203 80.6562 116.203 80.2656V68.9375C116.203 68.5469 116.281 68.2734 116.438 68.1172C116.594 67.9609 116.763 67.8828 116.945 67.8828C117.154 67.8828 117.375 67.9479 117.609 68.0781L119.016 68.8203H136.75L137.023 68.5469C137.388 68.2604 137.74 68.1172 138.078 68.1172C138.443 68.1172 138.794 68.2474 139.133 68.5078L139.641 68.9375ZM120.109 74.7969C119.797 74.7969 119.562 74.875 119.406 75.0312C119.276 75.1615 119.211 75.3958 119.211 75.7344V77.4922C119.211 77.8307 119.276 78.0781 119.406 78.2344C119.562 78.3646 119.797 78.4297 120.109 78.4297H135.695C136.008 78.4297 136.229 78.3646 136.359 78.2344C136.516 78.0781 136.594 77.8307 136.594 77.4922V75.7344C136.594 75.3958 136.516 75.1615 136.359 75.0312C136.229 74.875 136.008 74.7969 135.695 74.7969H120.109ZM120.109 70.1094C119.797 70.1094 119.562 70.1875 119.406 70.3438C119.276 70.474 119.211 70.7083 119.211 71.0469V72.5312C119.211 72.8698 119.276 73.1172 119.406 73.2734C119.562 73.4036 119.797 73.4688 120.109 73.4688H135.695C136.008 73.4688 136.229 73.4036 136.359 73.2734C136.516 73.1172 136.594 72.8698 136.594 72.5312V71.0469C136.594 70.7083 136.516 70.474 136.359 70.3438C136.229 70.1875 136.008 70.1094 135.695 70.1094H120.109ZM112.531 59.4453C112.531 59.3411 112.583 59.237 112.688 59.1328C112.818 59.0026 113.078 58.9375 113.469 58.9375H125.578C125.917 58.9375 126.151 58.8724 126.281 58.7422C126.438 58.5859 126.516 58.3385 126.516 58V55.3047C126.516 54.888 126.607 54.5755 126.789 54.3672C126.997 54.1589 127.271 54.0547 127.609 54.0547C128.104 54.0547 128.521 54.237 128.859 54.6016C129.198 54.9401 129.406 55.4609 129.484 56.1641V58C129.484 58.3385 129.549 58.5859 129.68 58.7422C129.836 58.8724 130.083 58.9375 130.422 58.9375H138.977L140.188 57.7656C140.526 57.4271 140.865 57.2578 141.203 57.2578C141.568 57.2578 141.906 57.401 142.219 57.6875L143.43 58.7812C143.56 59.0677 143.625 59.3151 143.625 59.5234C143.625 59.7057 143.547 59.875 143.391 60.0312C143.234 60.1875 142.961 60.2656 142.57 60.2656H136.711C136.555 60.2656 136.438 60.2786 136.359 60.3047C136.385 60.3828 136.477 60.474 136.633 60.5781L137.57 61.4375C137.622 61.5938 137.648 61.737 137.648 61.8672C137.648 61.9714 137.583 62.0885 137.453 62.2188C137.349 62.3229 137.167 62.375 136.906 62.375C136.88 62.375 136.841 62.375 136.789 62.375L136.281 62.9219L134.602 64.3281L133.312 65.2656C133.182 65.3438 133.078 65.4219 133 65.5C133.104 65.526 133.234 65.5391 133.391 65.5391H142.102C142.727 64.888 143.052 64.5495 143.078 64.5234C143.365 64.2109 143.664 64.0547 143.977 64.0547C144.289 64.0547 144.615 64.2109 144.953 64.5234L146.242 65.6562V65.7734C146.242 66.112 146.138 66.3854 145.93 66.5938C145.747 66.776 145.487 66.8672 145.148 66.8672H110.656C110.344 66.5286 110.188 66.2552 110.188 66.0469C110.188 65.9427 110.24 65.8385 110.344 65.7344C110.474 65.6042 110.734 65.5391 111.125 65.5391H130.305C131.008 65.5391 131.555 65.2526 131.945 64.6797L133.195 63L134.367 61.2812C134.732 60.6302 134.927 60.2917 134.953 60.2656C134.927 60.2656 134.901 60.2656 134.875 60.2656H113C112.688 59.9271 112.531 59.6536 112.531 59.4453ZM124.016 63.8594V64.9531L123.273 65.8125H122.102L121.203 64.6797L121.008 64.2109L120.617 63.3906L119.992 62.5312L119.602 62.0625L118.625 60.9688C118.547 60.7865 118.508 60.6432 118.508 60.5391C118.508 60.4349 118.534 60.3568 118.586 60.3047C118.664 60.2266 118.755 60.1875 118.859 60.1875C118.964 60.1875 119.094 60.2135 119.25 60.2656L119.953 60.5391L120.617 60.8516L121.203 61.1641L122.297 61.9062L122.766 62.3359L123.625 63.2734L124.016 63.8594Z" fill="#B29564"/>
<path d="M86.7969 113.828C86.8594 114.13 87.0521 114.281 87.375 114.281C87.6771 114.281 87.7188 114.391 87.5 114.609L85.1719 114.531C84.9323 114.365 85.0052 114.281 85.3906 114.281C85.7031 114.281 85.8281 114.13 85.7656 113.828L85.2188 111.453C85.1562 111.151 84.9688 111 84.6562 111H82.9375C82.625 111 82.4375 111.151 82.375 111.453L81.8281 113.828C81.7656 114.13 81.8906 114.281 82.2031 114.281L82.4375 114.344C82.6771 114.521 82.6458 114.609 82.3438 114.609L80.125 114.547C79.8854 114.37 79.9167 114.281 80.2188 114.281C80.5312 114.281 80.7188 114.13 80.7812 113.828L83.1875 103.391C83.25 103.089 83.4688 102.938 83.8438 102.938C84.1562 102.938 84.3438 103.089 84.4062 103.391L86.7969 113.828ZM82.6406 110.219C82.5781 110.521 82.7031 110.672 83.0156 110.672H84.5781C84.8906 110.672 85.0156 110.521 84.9531 110.219L83.8906 105.656C83.8281 105.354 83.7656 105.354 83.7031 105.656L82.6406 110.219ZM93.7031 107.984L93.5312 107.938L93.3281 107.953L93.0469 108.047L92.6875 108.281L92.2656 108.688L91.4688 109.719V113.812C91.4688 114.125 91.625 114.281 91.9375 114.281L92.2812 114.344C92.5208 114.521 92.4896 114.609 92.1875 114.609L89.6406 114.531C89.401 114.365 89.4323 114.281 89.7344 114.281H89.9844C90.2969 114.281 90.4531 114.125 90.4531 113.812V108.125C90.4531 107.812 90.3021 107.688 90 107.75H89.6719C89.3906 107.625 89.401 107.536 89.7031 107.484L90.5625 107.312L91.2812 107.172C91.3854 107.151 91.4479 107.25 91.4688 107.469V108.453C91.4688 108.766 91.5469 108.786 91.7031 108.516L91.8438 108.281L92.2969 107.734L92.7656 107.344L93.2344 107.094L93.6875 106.969L94.1094 106.953L94.4844 107.016L94.7969 107.156L95.0469 107.422L95.0938 107.797L94.75 108.234L94.3906 108.375L93.7031 107.984ZM102.125 113.5C102.406 113.375 102.448 113.469 102.25 113.781L101.875 114.188L101.453 114.516L100.969 114.719L100.469 114.812L99.9375 114.703L99.4688 114.391L99.125 113.875L98.875 113.016V108.016C98.875 107.714 98.7188 107.562 98.4062 107.562H97.5938C97.3854 107.333 97.4323 107.219 97.7344 107.219L97.8906 107.141L98.1094 107.047L98.4688 106.859L98.9062 106.562L99.0469 106.438L99.5938 105.391C99.8125 105.203 99.9271 105.26 99.9375 105.562L99.9219 106.203L99.9062 106.406L99.8906 106.75C99.8906 107.062 100.047 107.219 100.359 107.219L101.984 107.234C102.203 107.453 102.156 107.562 101.844 107.562H100.359C100.047 107.562 99.8906 107.719 99.8906 108.031V112.344L99.9062 112.953L100 113.375L100.156 113.672L100.344 113.844L100.594 113.953L100.906 113.984L101.266 113.922L101.672 113.781L102.125 113.5ZM106.484 114.531C106.245 114.365 106.276 114.281 106.578 114.281H106.828C107.141 114.281 107.297 114.125 107.297 113.812V108.047C107.297 107.734 107.146 107.604 106.844 107.656H106.5C106.229 107.531 106.24 107.443 106.531 107.391L107.953 107.109C108.161 107.068 108.276 107.161 108.297 107.391V113.812C108.297 114.125 108.453 114.281 108.766 114.281L109.125 114.344C109.365 114.521 109.333 114.609 109.031 114.609L106.484 114.531ZM107.234 105.438L107.047 105.219L106.938 104.984L106.922 104.75L106.938 104.484L107.047 104.25L107.234 104.047L107.5 103.906L107.797 103.859L108.094 103.906L108.359 104.047L108.547 104.25L108.641 104.484L108.688 104.75L108.641 104.984L108.547 105.219L108.359 105.438L108.094 105.578L107.797 105.625L107.5 105.578L107.234 105.438ZM118.672 112.812C118.922 112.635 118.964 112.677 118.797 112.938L118.453 113.469L117.688 114.141L116.828 114.578L115.906 114.766L114.984 114.703L114.109 114.375L113.359 113.797L112.766 112.953L112.422 111.891L112.359 110.625L112.406 110.078L112.562 109.453L112.812 108.875L113.141 108.375L113.531 107.938L113.984 107.594L114.469 107.344L115 107.172L115.625 107.109L115.969 107.047L116.469 107.031L116.922 107.094L117.359 107.203L117.75 107.359L118.109 107.562L118.406 107.828L118.625 108.172L118.734 108.594L118.703 109.031L118.469 109.344L117.984 109.406L117.625 109.25L117.484 108.906V108.688L117.453 108.5L117.391 108.328L117.281 108.156L117.141 107.984L116.922 107.828L116.656 107.672L116.328 107.547L115.578 107.422L115.141 107.594L114.734 107.828L114.359 108.109L114.047 108.438L113.781 108.812L113.578 109.234L113.438 109.703L113.359 110.188V110.656L113.453 111.594L113.719 112.375L114.125 113L114.656 113.453L115.266 113.766L115.953 113.906L116.688 113.859L117.453 113.609L118.203 113.156L118.672 112.812ZM122.484 114.531C122.245 114.365 122.276 114.281 122.578 114.281H122.828C123.141 114.281 123.297 114.125 123.297 113.812V103.594C123.297 103.281 123.146 103.151 122.844 103.203H122.5C122.229 103.078 122.24 102.99 122.531 102.938L123.969 102.656C124.167 102.625 124.276 102.719 124.297 102.938V113.812C124.297 114.125 124.453 114.281 124.766 114.281L125.125 114.344C125.365 114.521 125.333 114.609 125.031 114.609L122.484 114.531ZM134.672 112.812C134.922 112.635 134.964 112.677 134.797 112.938L134.453 113.469L133.688 114.141L132.828 114.578L131.906 114.766L130.984 114.703L130.109 114.375L129.359 113.797L128.766 112.953L128.422 111.891L128.359 110.625L128.406 110.078L128.562 109.453L128.812 108.875L129.141 108.375L129.531 107.938L129.984 107.594L130.469 107.344L131.031 107.141L131.594 107.031L132.172 107.016L132.734 107.094L133.266 107.266L133.734 107.547L134.172 107.922L134.516 108.422L134.781 109.016L134.938 109.719L134.984 110.25C134.984 110.469 134.875 110.578 134.656 110.578L129.828 110.656C129.516 110.656 129.375 110.812 129.406 111.125L129.453 111.594L129.719 112.375L130.125 113L130.656 113.453L131.266 113.766L131.953 113.906L132.688 113.859L133.453 113.609L134.203 113.156L134.672 112.812ZM131.578 107.422L131.141 107.594L130.734 107.828L130.359 108.109L130.047 108.438L129.781 108.812L129.578 109.234L129.422 109.781C129.38 110.094 129.516 110.25 129.828 110.25H133.375C133.656 110.25 133.792 110.109 133.781 109.828L133.688 109.25L133.562 108.781L133.359 108.391L133.125 108.078L132.844 107.828L132.5 107.609L132.078 107.469L131.578 107.422Z" fill="#B29564"/>
<g clip-path="url(#clip1_760_27553)">
<path d="M125.453 126.794C127.924 125.163 130.624 125.69 133.436 125.893C133.147 125.622 132.859 125.351 132.602 125.111C133.299 124.872 133.959 125.2 134.442 125.955C134.713 126.38 135.099 126.822 135.542 127.039C137.022 127.764 138.534 128.431 140.065 129.041C141.954 129.791 143.88 129.76 145.748 128.961C146.231 128.756 146.706 128.4 147.031 127.992C147.848 126.962 147.568 125.893 146.351 125.048C147.806 124.929 148.789 126.004 148.423 127.373C148.074 128.682 147.123 129.498 145.903 129.985C144.074 130.718 142.185 130.798 140.274 130.313C139.842 130.205 139.419 130.074 138.991 129.951C138.142 133.017 135.61 133.944 133.113 131.936C131.702 130.804 130.387 130.356 128.601 130.544C126.533 130.764 124.695 129.774 122.892 128.89C122.049 128.477 121.238 128.006 120.409 127.57C117.726 126.161 114.926 125.913 112.02 126.765C111.883 126.805 111.746 126.845 111.592 126.811C113.246 125.639 115.126 125.593 117.052 125.75C118.961 125.907 120.687 126.574 122.401 127.39C124.03 128.166 125.733 128.81 127.45 129.369C128.207 129.615 129.084 129.509 129.941 129.409C128.679 127.878 127.038 127.361 125.13 127.496C127.144 126.822 128.87 127.507 130.41 128.716C130.993 129.173 131.524 129.315 132.062 128.907C132.596 128.499 133.007 127.929 133.47 127.43C132.976 127.173 132.507 126.822 131.979 126.674C129.801 126.052 127.63 126.181 125.458 126.797L125.453 126.794ZM132.067 130.376C133.085 130.944 134.082 131.645 135.188 132.062C135.785 132.287 136.656 132.204 137.239 131.928C137.719 131.699 138.056 131.012 138.259 130.459C138.353 130.205 138.073 129.635 137.799 129.461C136.933 128.913 135.993 128.468 135.065 128.023C134.882 127.935 134.519 127.923 134.396 128.04C133.659 128.728 132.965 129.463 132.064 130.379L132.067 130.376Z" fill="#B29564"/>
<path d="M77.0866 130.154C75.6407 130.293 74.2092 130.522 72.7748 130.547C71.3576 130.573 69.9861 130.191 68.8917 129.247C68.3945 128.819 67.9488 128.254 67.6859 127.661C67.063 126.249 68.0459 124.989 69.906 125.06C68.7831 125.451 68.4402 126.138 68.5688 127.039C68.6945 127.94 69.2546 128.545 70.0746 128.902C71.8719 129.68 73.7263 129.811 75.5779 129.155C76.9494 128.671 78.2952 128.103 79.6153 127.496C80.4696 127.102 81.3754 126.788 81.7755 125.73C82.0212 125.083 82.7641 124.906 83.5327 125.048C83.1813 125.325 82.8755 125.568 82.5698 125.807C82.5841 125.896 82.6012 125.981 82.6155 126.07C85.3386 125.79 88.1159 125.094 90.6018 126.828C87.8473 126.047 85.1471 125.975 82.4784 127.27C82.8012 128.414 83.6042 128.913 84.5871 129.13C84.8528 129.187 85.2414 128.947 85.4986 128.75C86.7987 127.761 88.2245 127.153 89.896 127.219C90.1075 127.227 90.3189 127.302 90.5389 127.416C88.7902 127.498 87.213 127.921 85.8815 129.389C87.3558 129.714 88.6045 129.521 89.8017 129.027C91.4161 128.36 93.0134 127.652 94.5992 126.922C97.0537 125.787 99.6139 125.405 102.274 125.887C103.043 126.027 103.768 126.4 104.477 126.785C102.437 126.249 100.382 125.978 98.3538 126.56C97.028 126.942 95.7793 127.59 94.5106 128.152C93.0934 128.779 91.7104 129.492 90.276 130.08C88.7702 130.696 87.1844 130.684 85.5814 130.47C85.1986 130.419 84.7214 130.593 84.3814 130.812C83.7327 131.229 83.1898 131.805 82.5384 132.219C80.0782 133.779 77.6552 132.812 77.0808 130.154L77.0866 130.154ZM83.8385 130.214C83.0984 129.515 82.3898 128.959 81.8326 128.28C81.4754 127.849 81.2354 127.826 80.7982 128.072C80.041 128.497 79.2838 128.936 78.4809 129.267C77.5837 129.637 77.5837 130.276 77.8323 130.986C78.1352 131.859 78.8838 132.147 79.741 132.199C81.504 132.307 82.6755 131.26 83.8385 130.211L83.8385 130.214Z" fill="#B29564"/>
<path d="M96.1504 129.184C95.3247 131.015 96.2819 132.395 98.3306 132.17C99.1278 132.082 99.9536 131.711 100.631 131.269C101.519 130.693 102.297 129.945 103.082 129.23C106.1 126.469 109.954 126.48 112.949 129.252C113.752 129.997 114.606 130.693 115.469 131.369C116.318 132.033 117.306 132.324 118.389 132.181C120.026 131.965 120.655 130.647 119.806 129.252C119.881 129.21 119.958 129.17 120.032 129.127C120.246 129.503 120.566 129.854 120.655 130.256C120.826 131.026 120.589 131.731 119.892 132.19C118.572 133.06 117.14 133.245 115.76 132.447C114.82 131.905 114.009 131.14 113.166 130.442C112.72 130.071 112.349 129.617 111.92 129.227C109.417 126.937 106.511 126.971 104.011 129.269C102.851 130.336 101.705 131.437 100.419 132.341C99.0992 133.268 97.2334 133.074 96.0504 132.133C95.0046 131.303 95.0532 129.877 96.1504 129.19L96.1504 129.184Z" fill="#B29564"/>
</g>
<path d="M175.5 81.5H205.5" stroke="#B29564" stroke-width="3"/>
<defs>
<clipPath id="clip0_760_27553">
<rect width="85" height="8" fill="white" transform="translate(65.5 30)"/>
</clipPath>
<clipPath id="clip1_760_27553">
<rect width="81" height="7.99999" fill="white" transform="translate(148.5 133) rotate(-180)"/>
</clipPath>
</defs>
</svg>
