<svg width="216" height="163" viewBox="0 0 216 163" fill="none" xmlns="http://www.w3.org/2000/svg">
<path d="M10.5 81.5H40.5" stroke="#B29564" stroke-width="3"/>
<g clip-path="url(#clip0_868_41655)">
<path d="M89.6855 36.2061C87.0919 37.8374 84.2583 37.3098 81.3079 37.1073C81.6107 37.3783 81.9136 37.6492 82.1834 37.8888C81.4518 38.1284 80.7592 37.8004 80.2524 37.0446C79.9676 36.6196 79.5628 36.1776 79.098 35.9608C77.5448 35.2364 75.9586 34.569 74.3515 33.9587C72.3695 33.2086 70.3485 33.2399 68.3876 34.0385C67.8808 34.2439 67.3831 34.6004 67.0413 35.0082C66.1837 36.0378 66.4775 37.1073 67.7549 37.9515C66.2287 38.0713 65.1972 36.9961 65.581 35.6271C65.9468 34.318 66.9453 33.5023 68.2256 33.0146C70.1446 32.2817 72.1266 32.2018 74.1326 32.6866C74.5854 32.795 75.0291 32.9262 75.4789 33.0489C76.3694 29.9829 79.026 29.056 81.6467 31.0638C83.1279 32.1961 84.5072 32.6439 86.3812 32.4556C88.5521 32.236 90.4801 33.2257 92.3721 34.1098C93.2567 34.5234 94.1082 34.994 94.9778 35.4303C97.7933 36.8392 100.732 37.0874 103.781 36.2346C103.925 36.1947 104.069 36.1547 104.231 36.189C102.495 37.3612 100.522 37.4068 98.501 37.2499C96.498 37.0931 94.6869 36.4257 92.8879 35.61C91.1788 34.8342 89.3917 34.1897 87.5896 33.6307C86.795 33.3854 85.8745 33.4909 84.975 33.5907C86.3003 35.1223 88.0214 35.6385 90.0244 35.5045C87.9105 36.1776 86.0994 35.4931 84.4832 34.2838C83.8715 33.8275 83.3138 33.6849 82.7501 34.0927C82.1894 34.5006 81.7576 35.071 81.2719 35.5701C81.7906 35.8268 82.2824 36.1776 82.8371 36.3259C85.1219 36.9476 87.4007 36.8193 89.6795 36.2032L89.6855 36.2061ZM82.7441 32.6239C81.6767 32.0563 80.6302 31.3547 79.4698 30.9383C78.8431 30.713 77.9286 30.7957 77.3169 31.0724C76.8132 31.3006 76.4594 31.9879 76.2465 32.5412C76.1475 32.795 76.4414 33.3654 76.7292 33.5394C77.6378 34.087 78.6243 34.5319 79.5988 34.9768C79.7907 35.0653 80.1715 35.0767 80.3004 34.9597C81.074 34.2724 81.8026 33.5366 82.7471 32.621L82.7441 32.6239Z" fill="#B29564"/>
<path d="M140.44 32.8463C141.957 32.7066 143.46 32.4784 144.965 32.4528C146.452 32.4271 147.891 32.8093 149.04 33.7533C149.561 34.1811 150.029 34.7458 150.305 35.339C150.959 36.7508 149.927 38.0114 147.975 37.9401C149.154 37.5494 149.513 36.862 149.379 35.9608C149.247 35.0595 148.659 34.4549 147.798 34.0984C145.912 33.3198 143.966 33.1886 142.023 33.8446C140.584 34.3294 139.172 34.897 137.787 35.5045C136.89 35.898 135.939 36.2118 135.52 37.2699C135.262 37.9173 134.482 38.0941 133.676 37.9515C134.044 37.6749 134.365 37.4324 134.686 37.1929C134.671 37.1045 134.653 37.0189 134.638 36.9305C131.781 37.21 128.866 37.9059 126.257 36.1718C129.148 36.9533 131.982 37.0246 134.782 35.7298C134.443 34.5861 133.601 34.087 132.569 33.8702C132.29 33.8132 131.883 34.0528 131.613 34.2496C130.248 35.2392 128.752 35.8467 126.998 35.7811C126.776 35.7725 126.554 35.6984 126.323 35.5843C128.158 35.5016 129.814 35.0795 131.211 33.6107C129.664 33.2856 128.353 33.4795 127.097 33.9729C125.403 34.6403 123.727 35.3476 122.063 36.0777C119.487 37.2128 116.8 37.595 114.009 37.113C113.202 36.9733 112.441 36.5996 111.697 36.2146C113.838 36.7508 115.994 37.0217 118.123 36.4399C119.514 36.0578 120.824 35.4103 122.156 34.8485C123.643 34.221 125.094 33.508 126.599 32.9205C128.179 32.3045 129.844 32.3159 131.526 32.5298C131.928 32.5811 132.428 32.4071 132.785 32.1875C133.466 31.7711 134.035 31.195 134.719 30.7815C137.301 29.2214 139.843 30.1882 140.446 32.8463H140.44ZM133.355 32.7865C134.131 33.4852 134.875 34.0414 135.46 34.7201C135.835 35.1508 136.086 35.1736 136.545 34.9283C137.34 34.5034 138.134 34.0642 138.977 33.7333C139.918 33.3626 139.918 32.7237 139.658 32.0135C139.34 31.1408 138.554 30.8528 137.655 30.8014C135.805 30.693 134.575 31.7397 133.355 32.7893V32.7865Z" fill="#B29564"/>
<path d="M120.435 33.8161C121.301 31.9851 120.297 30.6047 118.147 30.83C117.31 30.9184 116.444 31.2892 115.733 31.7312C114.801 32.3073 113.985 33.0546 113.16 33.7704C109.994 36.5312 105.949 36.5198 102.807 33.7476C101.964 33.0032 101.068 32.3073 100.162 31.6314C99.2716 30.9669 98.2341 30.676 97.0977 30.8186C95.3796 31.0353 94.7199 32.353 95.6105 33.7476C95.5325 33.7904 95.4516 33.8303 95.3736 33.8731C95.1487 33.4966 94.8129 33.1458 94.7199 32.7437C94.54 31.9736 94.7889 31.2692 95.5205 30.81C96.9058 29.9401 98.408 29.7548 99.8563 30.5533C100.843 31.0952 101.694 31.8596 102.579 32.5583C103.047 32.9291 103.436 33.3826 103.886 33.7733C106.513 36.0635 109.562 36.0293 112.186 33.7305C113.403 32.6638 114.606 31.563 115.955 30.6589C117.34 29.7319 119.298 29.9259 120.54 30.8671C121.637 31.697 121.586 33.123 120.435 33.8104V33.8161Z" fill="#B29564"/>
</g>
<path d="M96.7109 82.0625C96.7891 82.2448 96.8281 82.4141 96.8281 82.5703C96.8281 82.7005 96.776 82.8177 96.6719 82.9219C96.5677 83.026 96.3854 83.0911 96.125 83.1172L93.8984 85.8906L92.6875 87.2578L92.1406 87.8047C92.0104 87.9609 91.9323 88.0911 91.9062 88.1953C91.9844 88.2474 92.1406 88.2734 92.375 88.2734H100.5L101.711 87.0625C102.049 86.724 102.388 86.5547 102.727 86.5547C103.065 86.5547 103.404 86.6849 103.742 86.9453L105.461 88.3906V88.5078C105.461 88.8464 105.37 89.1068 105.188 89.2891C105.005 89.4714 104.745 89.5625 104.406 89.5625L71.5938 89.4062C71.4375 89.3021 71.3073 89.1849 71.2031 89.0547C71.099 88.9505 71.0469 88.8464 71.0469 88.7422C71.0469 88.4297 71.3333 88.2734 71.9062 88.2734H89.3281C90.0052 88.2734 90.526 87.8698 90.8906 87.0625L92.1016 84.6797L93.8984 81.3594C94.0807 80.9688 94.3411 80.7734 94.6797 80.7734C94.888 80.7734 95.1094 80.8516 95.3438 81.0078L96.7109 82.0625ZM79.5234 81.5938C79.4453 81.4635 79.4062 81.3203 79.4062 81.1641C79.4062 81.0078 79.4453 80.9036 79.5234 80.8516C79.6016 80.7734 79.6927 80.7344 79.7969 80.7344C79.9271 80.7344 80.0833 80.7865 80.2656 80.8906L81.7891 81.8672L82.4141 82.4531L83.0781 83.0391L83.625 83.6641L84.1328 84.3672L84.6016 85.0312L85.4219 86.5938L85.3438 87.7266L84.4844 88.4688L83.3516 88.4297L82.6094 87.6094L82.4141 86.8672L82.2188 86.2422L81.6719 84.9531L81.3203 84.3281L80.5391 83.0391L79.5234 81.5938ZM98.7031 72.0625C99.0417 72.349 99.2109 72.6615 99.2109 73C99.2109 73.3125 99.0156 73.638 98.625 73.9766V78.8594C98.625 79.7448 98.2474 80.3698 97.4922 80.7344C97.4661 80.7604 97.2318 80.8646 96.7891 81.0469L96.6719 80.9688C96.099 80.5 95.4479 80.2656 94.7188 80.2656H80.1484L78.7422 81.0078C78.4818 81.138 78.2604 81.2031 78.0781 81.2031C77.8958 81.2031 77.7266 81.138 77.5703 81.0078C77.4401 80.8516 77.375 80.5651 77.375 80.1484V72.0625C77.375 71.6458 77.4401 71.3724 77.5703 71.2422C77.7266 71.0859 77.8958 71.0078 78.0781 71.0078C78.2865 71.0078 78.5078 71.0729 78.7422 71.2031L80.1484 71.9453H95.8125L96.0859 71.6719C96.4505 71.3854 96.8021 71.2422 97.1406 71.2422C97.5052 71.2422 97.8568 71.3724 98.1953 71.6328L98.7031 72.0625ZM81.2812 73.2344C80.9427 73.2344 80.6953 73.3125 80.5391 73.4688C80.4089 73.599 80.3438 73.8333 80.3438 74.1719V78.0391C80.3438 78.3776 80.4089 78.625 80.5391 78.7812C80.6953 78.9115 80.9427 78.9766 81.2812 78.9766H94.7188C95.0573 78.9766 95.2917 78.9115 95.4219 78.7812C95.5781 78.625 95.6562 78.3776 95.6562 78.0391V74.1719C95.6562 73.8333 95.5781 73.599 95.4219 73.4688C95.2917 73.3125 95.0573 73.2344 94.7188 73.2344H81.2812ZM84.3672 57.8828C84.4714 57.7005 84.5234 57.5703 84.5234 57.4922C84.5234 57.388 84.4974 57.3229 84.4453 57.2969C84.3672 57.2188 84.1979 57.1797 83.9375 57.1797L74.7578 56.9844C74.6016 56.8802 74.4714 56.776 74.3672 56.6719C74.263 56.5417 74.2109 56.4245 74.2109 56.3203C74.2109 56.0339 74.4974 55.8906 75.0703 55.8906H85.3828L85.6953 55.6562C86.0599 55.3438 86.4245 55.1875 86.7891 55.1875C87.1276 55.1875 87.4661 55.3177 87.8047 55.5781C88.1953 55.9167 88.4167 56.112 88.4688 56.1641C88.7031 56.3984 88.8203 56.6328 88.8203 56.8672C88.8203 57.2057 88.5859 57.5182 88.1172 57.8047C88.0911 57.8307 87.9089 57.9089 87.5703 58.0391L86.8281 59.4062L85.4219 61.5156L83.8594 63.4688L82.2188 65.3047L80.1875 67.2969C80.1094 67.349 80.0573 67.401 80.0312 67.4531C80.1354 67.4792 80.2786 67.4922 80.4609 67.4922H92.1016L93.3125 66.2812C93.651 65.9427 93.9896 65.7734 94.3281 65.7734C94.6667 65.7734 95.0052 65.9036 95.3438 66.1641L97.0625 67.6094V67.7266C97.0625 68.0651 96.9714 68.3255 96.7891 68.5078C96.6068 68.6901 96.3464 68.7812 96.0078 68.7812L79.6797 68.7422C79.6276 68.6641 79.5885 68.612 79.5625 68.5859C79.4062 68.4557 79.25 68.3906 79.0938 68.3906C78.9375 68.3906 78.7682 68.4688 78.5859 68.625L76.5156 70.1094L74.3672 71.4375L72.0625 72.6484L69.6016 72.7656L71.4766 71.5156L73.5078 70.1094L75.4219 68.625L77.2578 67.0625L78.9375 65.4219L80.4219 63.6641L81.8672 61.8281L83.1562 59.9922L84.3672 57.8828ZM89.5625 55.1875C89.5625 55.0833 89.5625 54.9922 89.5625 54.9141C89.5885 54.8359 89.6276 54.7708 89.6797 54.7188C89.7578 54.6406 89.8359 54.6016 89.9141 54.6016C90.0703 54.6016 90.2526 54.7969 90.4609 55.1875L91.0078 56.2422L92.1406 58.2344L93.4297 60.0312C93.8203 60.526 94.0547 60.8125 94.1328 60.8906C94.2109 60.9688 94.3021 61.0078 94.4062 61.0078C94.5625 61.0078 94.7318 60.8906 94.9141 60.6562L96.5547 58.3125L98.1953 55.7344C98.5339 55.2917 98.9115 55.2656 99.3281 55.6562L100.812 56.9844C100.865 57.1406 100.891 57.2839 100.891 57.4141C100.891 57.5443 100.839 57.6615 100.734 57.7656C100.63 57.8698 100.461 57.9219 100.227 57.9219C100.174 57.9219 100.122 57.9219 100.07 57.9219L97.4922 60.3047C96.2943 61.2682 95.6823 61.763 95.6562 61.7891C95.5 61.9453 95.4219 62.1016 95.4219 62.2578C95.4219 62.388 95.5 62.5443 95.6562 62.7266L96.2812 63.3906L97.1797 64.1719C97.388 64.3542 97.5964 64.4453 97.8047 64.4453C98.0391 64.4453 98.2474 64.3281 98.4297 64.0938L102.531 59.4062C102.74 59.1979 102.961 59.0938 103.195 59.0938C103.482 59.0938 103.755 59.237 104.016 59.5234L105.109 60.6172C105.161 60.7734 105.188 60.9167 105.188 61.0469C105.188 61.1771 105.135 61.2943 105.031 61.3984C104.927 61.5026 104.771 61.5547 104.562 61.5547C104.484 61.5547 104.393 61.5417 104.289 61.5156L100.422 64.4844C99.7188 64.9792 99.3411 65.2526 99.2891 65.3047C99.237 65.3568 99.2109 65.4479 99.2109 65.5781C99.2109 65.7344 99.3672 65.9427 99.6797 66.2031L101.594 67.4531L103.664 68.625L106.047 69.7188C106.542 69.9271 106.789 70.1875 106.789 70.5C106.789 70.7604 106.62 71.0339 106.281 71.3203L105.695 71.8281C105.305 72.1406 104.888 72.2969 104.445 72.2969C104.133 72.2969 103.82 72.2057 103.508 72.0234L102.18 71.3203L99.9922 69.9531L98 68.4297L96.1641 66.7891L94.4844 65.0312L93.0391 63.1172L91.75 61.1641L90.6562 59.0156L89.7578 56.7891C89.6276 55.7995 89.5625 55.2656 89.5625 55.1875ZM72.9219 60.2656C72.8177 60.0573 72.7656 59.901 72.7656 59.7969C72.7656 59.6667 72.7917 59.5755 72.8438 59.5234C72.9219 59.4453 73.026 59.4062 73.1562 59.4062C73.2865 59.4062 73.4167 59.4193 73.5469 59.4453L74.3281 59.7188L75.1094 60.0703L75.8516 60.4219L77.2188 61.2812L77.8438 61.75L78.4688 62.3359L79.6406 63.5469L79.8359 64.6406L79.2891 65.6172L78.1172 65.8516L77.1406 65.2656L76.8281 64.6406L76.4375 64.0547L75.6172 62.9609L74.6797 61.9453L72.9219 60.2656ZM119.562 58.0781C119.198 57.8177 119.016 57.5964 119.016 57.4141C119.016 57.1276 119.302 56.9844 119.875 56.9844H126.867L128.078 55.7734C128.417 55.4349 128.755 55.2656 129.094 55.2656C129.432 55.2656 129.771 55.3958 130.109 55.6562L131.789 57.1016V57.2188C131.789 57.5573 131.698 57.8177 131.516 58C131.333 58.1823 131.073 58.2734 130.734 58.2734H129.797C129.484 58.2734 129.263 58.3385 129.133 58.4688C129.029 58.5729 128.977 58.7552 128.977 59.0156C128.977 59.0938 129.094 60.0052 129.328 61.75L130.07 65.5L131.125 69.0547L132.414 72.4531L134.016 75.5781L135.852 78.5078L137.922 81.0859L140.227 83.4297L142.688 85.4219L145.383 87.1016C145.799 87.3359 146.008 87.6094 146.008 87.9219C146.008 88.1823 145.852 88.4427 145.539 88.7031L144.953 89.2109C144.589 89.4714 144.224 89.6016 143.859 89.6016C143.521 89.6016 143.182 89.4844 142.844 89.25L140.852 87.9219L138.195 85.5391L135.773 82.9219L133.703 79.9141L131.867 76.7109L130.383 73.2734L129.328 70.6562C129.276 70.5 129.224 70.4089 129.172 70.3828C129.146 70.3307 129.133 70.3047 129.133 70.3047C129.081 70.3568 129.003 70.5 128.898 70.7344L128.586 71.3984L127.18 74.1328L125.617 76.75L123.898 79.25L121.945 81.5156L119.875 83.6641L117.648 85.6172L115.227 87.375L112.609 88.9766L109.523 89.6016L111.945 87.8828L114.289 86.0859L116.438 84.2109L118.43 82.1797L120.227 80.0703L121.906 77.8047L123.43 75.4219L124.797 72.8828L125.93 70.2266L127.219 66.75L128.078 63.9375L128.156 63.5078L127.961 61.8672L128 59.2109C128 58.8724 127.922 58.638 127.766 58.5078C127.635 58.3516 127.401 58.2734 127.062 58.2734L119.562 58.0781Z" fill="#B29564"/>
<path d="M83.6406 114.531C83.401 114.365 83.4271 114.281 83.7188 114.281H84.4844C84.7969 114.281 84.9531 114.125 84.9531 113.812V103.734C84.9531 103.432 84.8021 103.281 84.5 103.281H83.6094C83.3906 103.052 83.4375 102.938 83.75 102.938L87.3125 102.953C87.5312 103.172 87.4896 103.281 87.1875 103.281H86.4375C86.125 103.281 85.9688 103.432 85.9688 103.734V113.812C85.9688 114.125 86.125 114.281 86.4375 114.281L90.4844 114.156C90.7969 114.156 91.0104 114.01 91.125 113.719L91.3281 113.203L92.1406 111.812L92.0938 112.25L92.0625 112.656L92.0312 113.031L91.9375 113.672L91.9219 113.938L91.875 114.188L91.8281 114.391C91.8073 114.536 91.724 114.609 91.5781 114.609L83.6406 114.531ZM96.3594 110.891L96.3906 110.188L96.5469 109.5L96.7812 108.891L97.1094 108.359L97.5 107.906L97.9375 107.531L98.4375 107.266L98.9531 107.094L99.5 107.016L99.7969 107.047L100.094 107.016L100.625 107.094L101.156 107.266L101.641 107.531L102.094 107.906L102.484 108.359L102.812 108.891L103.047 109.5L103.188 110.188L103.234 110.938L103.188 111.641L103.047 112.328L102.812 112.938L102.484 113.469L102.094 113.922L101.641 114.297L101.156 114.562L100.625 114.734L100.094 114.812L99.7969 114.781L99.5 114.812L98.9531 114.734L98.4375 114.562L97.9375 114.297L97.5 113.922L97.1094 113.469L96.7812 112.938L96.5469 112.328L96.3906 111.641L96.3594 110.891ZM99.5938 107.328L99.1094 107.516L98.7031 107.75L98.3438 108.031L98.0156 108.375L97.7656 108.781L97.5625 109.234L97.4219 109.719L97.3594 110.281V110.844L97.4531 111.484L97.5781 112.047L97.7656 112.547L97.9844 113L98.25 113.375L98.5625 113.719L98.9219 114.016L99.3594 114.25L99.8281 114.453L100 114.5L100.484 114.312L100.891 114.078L101.25 113.797L101.578 113.453L101.828 113.047L102.031 112.594L102.172 112.109L102.234 111.547V110.984L102.141 110.344L102.016 109.781L101.828 109.281L101.609 108.828L101.344 108.453L101.031 108.109L100.672 107.812L100.234 107.578L99.7656 107.375L99.5938 107.328ZM106.875 112.688L107.781 112.703L108.578 112.75L109.266 112.812L109.578 112.859L109.844 112.906L110.156 113L110.672 113.234L111.125 113.688L111.312 114.234L111.281 114.797L111.062 115.297L110.734 115.75L110.281 116.125L109.75 116.438L109.188 116.703L108.625 116.891L108.062 117.031L107.516 117.094L106.984 117.109L106.469 117.062L105.984 116.938L105.547 116.766L105.141 116.5L104.859 116.312L104.688 115.938L104.609 115.578V115.203L104.719 114.859L104.891 114.562L105.141 114.297L105.438 114.078L105.797 113.891L106.031 113.766C106.26 113.651 106.245 113.557 105.984 113.484L105.625 113.297L105.328 113.078L105.109 112.781L105.047 112.391L105.172 112.031L105.438 111.719L105.859 111.469C106.036 111.302 106.031 111.135 105.844 110.969L105.625 110.703L105.453 110.375L105.328 110.031L105.234 109.688L105.203 109.328L105.234 108.984L105.328 108.609L105.453 108.25L105.641 107.938L105.875 107.656L106.156 107.438L106.469 107.266L106.828 107.156L107.203 107.109L107.484 107.141L107.828 107.047H108.188L108.547 107.125L108.875 107.234L109.281 107.469L110.922 107.484C111.141 107.703 111.099 107.812 110.797 107.812L110.078 107.875C109.839 107.885 109.781 107.995 109.906 108.203L110.047 108.562L110.141 108.766V109.266L110.047 109.75L109.891 110.188L109.656 110.578L109.375 110.906L109.047 111.172L108.688 111.359L108.281 111.484L107.875 111.516L107.547 111.5H107.25L106.828 111.484C106.589 111.411 106.37 111.453 106.172 111.609L106.031 111.719L105.766 112.031L105.812 112.297C105.823 112.422 105.885 112.51 106 112.562L106.25 112.609L106.516 112.656L106.875 112.688ZM106.734 113.703L106.328 113.938L106 114.188L105.734 114.453L105.562 114.672L105.453 114.891L105.406 115.078L105.469 115.391L105.594 115.578L105.766 115.797L106 115.984L106.281 116.156L106.656 116.297L107.047 116.391L107.516 116.469L108.016 116.484L108.641 116.438L109.109 116.312L109.578 116.062L109.969 115.734L110.266 115.375L110.469 114.984L110.531 114.656L110.516 114.391L110.391 114.203L110.172 114.047L109.656 113.906L109.406 113.859L109.141 113.812L108.828 113.781L108.125 113.734L107.734 113.703H106.734ZM109.062 108.562L109 108.359L108.875 108.156L108.734 107.984L108.547 107.812L108.328 107.672L108.062 107.531L107.781 107.422L107.578 107.344L107.281 107.469L107 107.625L106.766 107.781L106.578 107.953L106.438 108.141L106.344 108.344L106.266 108.562L106.219 108.812L106.203 109.094V109.406L106.172 109.594V109.875L106.219 110.125L106.266 110.359L106.359 110.578L106.5 110.781L106.688 110.953L106.938 111.125L107.281 111.266L107.562 111.312L107.828 111.25L108.156 111.109L108.438 110.922L108.672 110.703L108.859 110.469L109.016 110.188L109.125 109.891L109.172 109.578L109.125 109.016L109.109 108.781L109.062 108.562ZM122.484 114.531C122.245 114.365 122.276 114.281 122.578 114.281H122.828C123.141 114.281 123.297 114.125 123.297 113.812V108.047C123.297 107.734 123.146 107.604 122.844 107.656H122.5C122.229 107.531 122.24 107.443 122.531 107.391L123.953 107.109C124.161 107.068 124.276 107.161 124.297 107.391V113.812C124.297 114.125 124.453 114.281 124.766 114.281L125.125 114.344C125.365 114.521 125.333 114.609 125.031 114.609L122.484 114.531ZM123.234 105.438L123.047 105.219L122.938 104.984L122.922 104.75L122.938 104.484L123.047 104.25L123.234 104.047L123.5 103.906L123.797 103.859L124.094 103.906L124.359 104.047L124.547 104.25L124.641 104.484L124.688 104.75L124.641 104.984L124.547 105.219L124.359 105.438L124.094 105.578L123.797 105.625L123.5 105.578L123.234 105.438ZM132.578 114.531C132.339 114.365 132.37 114.281 132.672 114.281H132.922C133.234 114.281 133.391 114.125 133.391 113.812V109.156L133.344 108.688L133.203 108.344L132.969 108.094L132.641 107.938L132.234 107.875L131.766 107.906L131.266 108.062L130.734 108.375L130.25 108.797L129.875 109.203V113.812C129.875 114.125 130.031 114.281 130.344 114.281L130.688 114.344C130.927 114.521 130.896 114.609 130.594 114.609L128.047 114.547C127.807 114.37 127.839 114.281 128.141 114.281H128.391C128.703 114.281 128.859 114.125 128.859 113.812V108.047C128.859 107.734 128.708 107.604 128.406 107.656H128.062C127.792 107.531 127.802 107.443 128.094 107.391L129.516 107.109C129.724 107.068 129.844 107.161 129.875 107.391L129.891 108.062C129.891 108.375 129.984 108.411 130.172 108.172L130.375 107.938L130.953 107.484L131.578 107.203L132.219 107.078L132.859 107.125L133.453 107.344L133.938 107.781L134.281 108.391L134.406 109.062V113.812C134.406 114.125 134.562 114.281 134.875 114.281L135.219 114.344C135.458 114.521 135.427 114.609 135.125 114.609L132.578 114.531Z" fill="#B29564"/>
<g clip-path="url(#clip1_868_41655)">
<path d="M125.453 126.794C127.924 125.163 130.624 125.69 133.436 125.893C133.147 125.622 132.859 125.351 132.602 125.111C133.299 124.872 133.959 125.2 134.442 125.955C134.713 126.38 135.099 126.822 135.542 127.039C137.022 127.764 138.534 128.431 140.065 129.041C141.954 129.791 143.88 129.76 145.748 128.961C146.231 128.756 146.706 128.4 147.031 127.992C147.848 126.962 147.568 125.893 146.351 125.048C147.806 124.929 148.789 126.004 148.423 127.373C148.074 128.682 147.123 129.498 145.903 129.985C144.074 130.718 142.185 130.798 140.274 130.313C139.842 130.205 139.419 130.074 138.991 129.951C138.142 133.017 135.61 133.944 133.113 131.936C131.702 130.804 130.387 130.356 128.601 130.544C126.533 130.764 124.695 129.774 122.892 128.89C122.049 128.477 121.238 128.006 120.409 127.57C117.726 126.161 114.926 125.913 112.02 126.765C111.883 126.805 111.746 126.845 111.592 126.811C113.246 125.639 115.126 125.593 117.052 125.75C118.961 125.907 120.687 126.574 122.401 127.39C124.03 128.166 125.733 128.81 127.45 129.369C128.207 129.615 129.084 129.509 129.941 129.409C128.679 127.878 127.038 127.361 125.13 127.496C127.144 126.822 128.87 127.507 130.41 128.716C130.993 129.173 131.524 129.315 132.062 128.907C132.596 128.499 133.007 127.929 133.47 127.43C132.976 127.173 132.507 126.822 131.979 126.674C129.801 126.052 127.63 126.181 125.458 126.797L125.453 126.794ZM132.067 130.376C133.085 130.944 134.082 131.645 135.188 132.062C135.785 132.287 136.656 132.204 137.239 131.928C137.719 131.699 138.056 131.012 138.259 130.459C138.353 130.205 138.073 129.635 137.799 129.461C136.933 128.913 135.993 128.468 135.065 128.023C134.882 127.935 134.519 127.923 134.396 128.04C133.659 128.728 132.965 129.463 132.064 130.379L132.067 130.376Z" fill="#B29564"/>
<path d="M77.0863 130.154C75.6405 130.293 74.209 130.522 72.7746 130.547C71.3573 130.573 69.9858 130.191 68.8914 129.247C68.3943 128.819 67.9485 128.254 67.6856 127.661C67.0627 126.249 68.0457 124.989 69.9058 125.06C68.7829 125.451 68.44 126.138 68.5686 127.039C68.6943 127.94 69.2543 128.545 70.0744 128.902C71.8717 129.68 73.7261 129.811 75.5776 129.155C76.9492 128.671 78.295 128.103 79.6151 127.496C80.4694 127.102 81.3752 126.788 81.7752 125.73C82.0209 125.083 82.7638 124.906 83.5325 125.048C83.181 125.325 82.8753 125.568 82.5695 125.807C82.5838 125.896 82.601 125.981 82.6153 126.07C85.3383 125.79 88.1157 125.094 90.6015 126.828C87.8471 126.047 85.1469 125.975 82.4781 127.27C82.801 128.414 83.6039 128.913 84.5868 129.13C84.8526 129.187 85.2412 128.947 85.4983 128.75C86.7984 127.761 88.2242 127.153 89.8958 127.219C90.1072 127.227 90.3187 127.302 90.5387 127.416C88.79 127.498 87.2127 127.921 85.8812 129.389C87.3556 129.714 88.6043 129.521 89.8015 129.027C91.4159 128.36 93.0131 127.652 94.599 126.922C97.0534 125.787 99.6136 125.405 102.274 125.887C103.042 126.027 103.768 126.4 104.477 126.785C102.437 126.249 100.382 125.978 98.3535 126.56C97.0277 126.942 95.7791 127.59 94.5104 128.152C93.0931 128.779 91.7102 129.492 90.2758 130.08C88.77 130.696 87.1842 130.684 85.5812 130.47C85.1983 130.419 84.7211 130.593 84.3811 130.812C83.7325 131.229 83.1896 131.805 82.5381 132.219C80.0779 133.779 77.6549 132.812 77.0806 130.154L77.0863 130.154ZM83.8382 130.214C83.0982 129.515 82.3895 128.959 81.8324 128.28C81.4752 127.849 81.2352 127.826 80.798 128.072C80.0408 128.497 79.2836 128.936 78.4807 129.267C77.5835 129.637 77.5835 130.276 77.8321 130.986C78.1349 131.859 78.8836 132.147 79.7408 132.199C81.5038 132.307 82.6753 131.26 83.8382 130.211L83.8382 130.214Z" fill="#B29564"/>
<path d="M96.1507 129.184C95.3249 131.015 96.2821 132.395 98.3308 132.17C99.128 132.082 99.9538 131.711 100.631 131.269C101.52 130.693 102.297 129.945 103.083 129.23C106.1 126.469 109.955 126.48 112.949 129.252C113.752 129.997 114.606 130.693 115.469 131.369C116.318 132.033 117.306 132.324 118.389 132.181C120.027 131.965 120.655 130.647 119.807 129.252C119.881 129.21 119.958 129.17 120.032 129.127C120.247 129.503 120.567 129.854 120.655 130.256C120.827 131.026 120.59 131.731 119.892 132.19C118.572 133.06 117.141 133.245 115.761 132.447C114.821 131.905 114.009 131.14 113.166 130.442C112.72 130.071 112.349 129.617 111.92 129.227C109.417 126.937 106.511 126.971 104.011 129.269C102.851 130.336 101.705 131.437 100.42 132.341C99.0994 133.268 97.2336 133.074 96.0507 132.133C95.0049 131.303 95.0534 129.877 96.1507 129.19L96.1507 129.184Z" fill="#B29564"/>
</g>
<path d="M175.5 81.5H205.5" stroke="#B29564" stroke-width="3"/>
<defs>
<clipPath id="clip0_868_41655">
<rect width="85" height="8" fill="white" transform="translate(65.5 30)"/>
</clipPath>
<clipPath id="clip1_868_41655">
<rect width="81" height="7.99999" fill="white" transform="translate(148.5 133) rotate(-180)"/>
</clipPath>
</defs>
</svg>
