<svg width="216" height="163" viewBox="0 0 216 163" fill="none" xmlns="http://www.w3.org/2000/svg">
<path d="M10.5 81.5H40.5" stroke="#B29564" stroke-width="3"/>
<g clip-path="url(#clip0_760_26085)">
<path d="M89.6855 36.2061C87.0918 37.8374 84.2583 37.3098 81.3078 37.1073C81.6107 37.3783 81.9135 37.6492 82.1834 37.8888C81.4517 38.1284 80.7591 37.8004 80.2524 37.0446C79.9675 36.6196 79.5627 36.1776 79.098 35.9608C77.5448 35.2364 75.9586 34.569 74.3514 33.9587C72.3694 33.2086 70.3485 33.2399 68.3875 34.0385C67.8808 34.2439 67.383 34.6004 67.0412 35.0082C66.1836 36.0378 66.4775 37.1073 67.7548 37.9515C66.2286 38.0713 65.1972 36.9961 65.581 35.6271C65.9468 34.318 66.9453 33.5023 68.2256 33.0146C70.1446 32.2817 72.1266 32.2018 74.1325 32.6866C74.5853 32.795 75.0291 32.9262 75.4788 33.0489C76.3694 29.9829 79.026 29.056 81.6466 31.0638C83.1279 32.1961 84.5072 32.6439 86.3812 32.4556C88.5521 32.236 90.4801 33.2257 92.3721 34.1098C93.2566 34.5234 94.1082 34.994 94.9777 35.4303C97.7933 36.8392 100.732 37.0874 103.781 36.2346C103.925 36.1947 104.069 36.1547 104.231 36.189C102.495 37.3612 100.522 37.4068 98.5009 37.2499C96.498 37.0931 94.6869 36.4257 92.8878 35.61C91.1787 34.8342 89.3916 34.1897 87.5896 33.6307C86.795 33.3854 85.8745 33.4909 84.9749 33.5907C86.3002 35.1223 88.0213 35.6385 90.0243 35.5045C87.9104 36.1776 86.0993 35.4931 84.4832 34.2838C83.8715 33.8275 83.3138 33.6849 82.7501 34.0927C82.1894 34.5006 81.7576 35.071 81.2718 35.5701C81.7906 35.8268 82.2823 36.1776 82.837 36.3259C85.1218 36.9476 87.4007 36.8193 89.6795 36.2032L89.6855 36.2061ZM82.7441 32.6239C81.6766 32.0563 80.6302 31.3547 79.4698 30.9383C78.8431 30.713 77.9286 30.7957 77.3169 31.0724C76.8131 31.3006 76.4593 31.9879 76.2464 32.5412C76.1475 32.795 76.4413 33.3654 76.7292 33.5394C77.6377 34.087 78.6242 34.5319 79.5987 34.9768C79.7906 35.0653 80.1714 35.0767 80.3003 34.9597C81.0739 34.2724 81.8026 33.5366 82.7471 32.621L82.7441 32.6239Z" fill="#B29564"/>
<path d="M140.44 32.8463C141.957 32.7066 143.46 32.4784 144.965 32.4528C146.452 32.4271 147.891 32.8093 149.04 33.7533C149.561 34.1811 150.029 34.7458 150.305 35.339C150.959 36.7508 149.927 38.0114 147.975 37.9401C149.154 37.5494 149.514 36.862 149.379 35.9608C149.247 35.0595 148.659 34.4549 147.798 34.0984C145.912 33.3198 143.966 33.1886 142.023 33.8446C140.584 34.3294 139.172 34.897 137.787 35.5045C136.89 35.898 135.94 36.2118 135.52 37.2699C135.262 37.9173 134.482 38.0941 133.676 37.9515C134.045 37.6749 134.365 37.4324 134.686 37.1929C134.671 37.1045 134.653 37.0189 134.638 36.9305C131.781 37.21 128.866 37.9059 126.258 36.1718C129.148 36.9533 131.982 37.0246 134.782 35.7298C134.443 34.5861 133.601 34.087 132.569 33.8702C132.29 33.8132 131.883 34.0528 131.613 34.2496C130.248 35.2392 128.752 35.8467 126.998 35.7811C126.776 35.7725 126.554 35.6984 126.324 35.5843C128.159 35.5016 129.814 35.0795 131.211 33.6107C129.664 33.2856 128.353 33.4795 127.097 33.9729C125.403 34.6403 123.727 35.3476 122.063 36.0777C119.487 37.2128 116.8 37.595 114.009 37.113C113.202 36.9733 112.441 36.5996 111.697 36.2146C113.838 36.7508 115.994 37.0217 118.123 36.4399C119.514 36.0578 120.824 35.4103 122.156 34.8485C123.643 34.221 125.094 33.508 126.599 32.9205C128.18 32.3045 129.844 32.3159 131.526 32.5298C131.928 32.5811 132.428 32.4071 132.785 32.1875C133.466 31.7711 134.036 31.195 134.719 30.7815C137.301 29.2214 139.844 30.1882 140.446 32.8463H140.44ZM133.355 32.7865C134.131 33.4852 134.875 34.0414 135.46 34.7201C135.835 35.1508 136.086 35.1736 136.545 34.9283C137.34 34.5034 138.134 34.0642 138.977 33.7333C139.918 33.3626 139.918 32.7237 139.658 32.0135C139.34 31.1408 138.554 30.8528 137.655 30.8014C135.805 30.693 134.575 31.7397 133.355 32.7893V32.7865Z" fill="#B29564"/>
<path d="M120.435 33.8161C121.301 31.9851 120.297 30.6047 118.147 30.83C117.31 30.9184 116.444 31.2892 115.733 31.7312C114.8 32.3073 113.985 33.0546 113.16 33.7704C109.994 36.5312 105.949 36.5198 102.807 33.7476C101.964 33.0032 101.068 32.3073 100.162 31.6314C99.2715 30.9669 98.2341 30.676 97.0976 30.8186C95.3795 31.0353 94.7199 32.353 95.6104 33.7476C95.5325 33.7904 95.4515 33.8303 95.3735 33.8731C95.1487 33.4966 94.8128 33.1458 94.7199 32.7437C94.54 31.9736 94.7888 31.2692 95.5205 30.81C96.9057 29.9401 98.408 29.7548 99.8562 30.5533C100.843 31.0952 101.694 31.8596 102.579 32.5583C103.047 32.9291 103.436 33.3826 103.886 33.7733C106.513 36.0635 109.562 36.0293 112.186 33.7305C113.403 32.6638 114.606 31.563 115.955 30.6589C117.34 29.7319 119.298 29.9259 120.54 30.8671C121.637 31.697 121.586 33.123 120.435 33.8104V33.8161Z" fill="#B29564"/>
</g>
<path d="M72.2188 90.5C71.9844 90.6302 71.763 90.6953 71.5547 90.6953C71.3724 90.6953 71.2031 90.6172 71.0469 90.4609C70.8906 90.3047 70.8125 90.0312 70.8125 89.6406V79.1328C70.8125 78.7422 70.8776 78.4818 71.0078 78.3516C71.1641 78.1953 71.3333 78.1172 71.5156 78.1172C71.724 78.1172 71.9583 78.1823 72.2188 78.3125L73.625 79.0156H80.1875L80.4609 78.7422C80.8255 78.4557 81.1771 78.3125 81.5156 78.3125C81.8542 78.3125 82.2057 78.4557 82.5703 78.7422L83.1562 79.25L83.3125 79.7969C83.1302 80.5781 83.0391 81.3333 83.0391 82.0625V87.8047C83.0391 88.6641 82.6484 89.276 81.8672 89.6406L81.4375 89.875C81.1771 90.0052 80.9557 90.0703 80.7734 90.0703C80.5911 90.0703 80.4219 89.9922 80.2656 89.8359C80.1094 89.6797 80.0312 89.4323 80.0312 89.0938C80.0312 88.7812 79.9792 88.5729 79.875 88.4688C79.7708 88.3646 79.5885 88.3125 79.3281 88.3125H74.7969L74.2109 88.625C73.8984 89.3802 73.3776 89.9271 72.6484 90.2656L72.2188 90.5ZM96.7109 64.1328C96.7891 64.1589 96.8932 64.237 97.0234 64.3672C97.1536 64.4714 97.2188 64.6146 97.2188 64.7969C97.2188 64.9531 97.1146 65.1094 96.9062 65.2656V73.8984C96.9062 74.237 96.9714 74.4844 97.1016 74.6406C97.2578 74.7708 97.5052 74.8359 97.8438 74.8359H99.6797L100.891 73.625C101.229 73.2865 101.568 73.1172 101.906 73.1172C102.245 73.1172 102.583 73.2474 102.922 73.5078L104.602 74.9531V75.0703C104.602 75.4089 104.51 75.6693 104.328 75.8516C104.146 76.0339 103.885 76.125 103.547 76.125H97.8047C97.4922 76.125 97.2578 76.2031 97.1016 76.3594C96.9714 76.4896 96.9062 76.724 96.9062 77.0625V87.7656C96.9062 88.1042 96.9714 88.3385 97.1016 88.4688C97.2578 88.625 97.5052 88.7031 97.8438 88.7031H101.477L102.688 87.4922C103.026 87.1536 103.365 86.9844 103.703 86.9844C104.042 86.9844 104.38 87.1146 104.719 87.375L106.438 88.8203V88.9375C106.438 89.276 106.346 89.5365 106.164 89.7188C105.982 89.901 105.721 89.9922 105.383 89.9922L85.4609 89.8359C85.3047 89.7318 85.1745 89.6146 85.0703 89.4844C84.9661 89.3802 84.9141 89.276 84.9141 89.1719C84.9141 88.8594 85.2005 88.7031 85.7734 88.7031H93C93.3385 88.7031 93.5729 88.625 93.7031 88.4688C93.8594 88.3385 93.9375 88.1042 93.9375 87.7656V77.0625C93.9375 76.724 93.8594 76.4896 93.7031 76.3594C93.5729 76.2031 93.3385 76.125 93 76.125L87.6484 75.9688C87.4922 75.8646 87.362 75.7604 87.2578 75.6562C87.1536 75.526 87.1016 75.4089 87.1016 75.3047C87.1016 74.9922 87.388 74.8359 87.9609 74.8359H93C93.3385 74.8359 93.5729 74.7708 93.7031 74.6406C93.8594 74.4844 93.9375 74.237 93.9375 73.8984V65.1094C93.9375 64.6927 94.0286 64.3802 94.2109 64.1719C94.4193 63.9635 94.6927 63.8594 95.0312 63.8594C95.1354 63.8594 95.2526 63.8724 95.3828 63.8984L96.7109 64.1328ZM74.7578 80.3438C74.4193 80.3438 74.1719 80.4219 74.0156 80.5781C73.8854 80.7083 73.8203 80.9297 73.8203 81.2422V86.0859C73.8203 86.4245 73.8854 86.6719 74.0156 86.8281C74.1719 86.9583 74.4193 87.0234 74.7578 87.0234H79.0938C79.4323 87.0234 79.6667 86.9583 79.7969 86.8281C79.9531 86.6719 80.0312 86.4375 80.0312 86.125V81.2812C80.0312 80.9427 79.9531 80.7083 79.7969 80.5781C79.6667 80.4219 79.4323 80.3438 79.0938 80.3438H74.7578ZM83 74.0156C83 74.3542 82.9089 74.6146 82.7266 74.7969C82.5443 74.9792 82.2839 75.0703 81.9453 75.0703L71.9062 74.875C71.75 74.7708 71.6198 74.6667 71.5156 74.5625C71.4115 74.4323 71.3594 74.3151 71.3594 74.2109C71.3594 73.9245 71.6458 73.7812 72.2188 73.7812H78.0391L79.25 72.5703C79.5885 72.2318 79.9271 72.0625 80.2656 72.0625C80.6042 72.0625 80.9427 72.1927 81.2812 72.4531L83 73.8984V74.0156ZM83 68.5469C83 68.8854 82.8958 69.1589 82.6875 69.3672C82.5052 69.5495 82.2448 69.6406 81.9062 69.6406H71.7891C71.4766 69.3021 71.3203 69.0286 71.3203 68.8203C71.3203 68.7161 71.3724 68.612 71.4766 68.5078C71.6068 68.3776 71.8672 68.3125 72.2578 68.3125H78.0391L79.25 67.1016C79.5885 66.763 79.9271 66.5938 80.2656 66.5938C80.6042 66.5938 80.9427 66.724 81.2812 66.9844L83 68.4297V68.5469ZM86.2422 63.3516C86.2422 63.2474 86.2943 63.1432 86.3984 63.0391C86.5286 62.9089 86.7891 62.8438 87.1797 62.8438H93.0391C93.3516 62.8438 93.5729 62.7786 93.7031 62.6484C93.8594 62.4922 93.9375 62.2448 93.9375 61.9062V55.8516C93.9375 55.4349 94.0286 55.1224 94.2109 54.9141C94.4193 54.7057 94.6927 54.6016 95.0312 54.6016C95.526 54.6016 95.9427 54.7839 96.2812 55.1484C96.6198 55.487 96.8281 56.0078 96.9062 56.7109V61.9062C96.9062 62.2448 96.9714 62.4922 97.1016 62.6484C97.2578 62.7786 97.4922 62.8438 97.8047 62.8438H100.891L102.062 61.6719C102.401 61.3333 102.74 61.1641 103.078 61.1641C103.443 61.1641 103.781 61.3073 104.094 61.5938L105.305 62.6875C105.409 62.974 105.461 63.2214 105.461 63.4297C105.461 63.612 105.383 63.7812 105.227 63.9375C105.07 64.0938 104.797 64.1719 104.406 64.1719H86.7109C86.3984 63.8333 86.2422 63.5599 86.2422 63.3516ZM84.8359 62.6875C84.8359 63.026 84.7448 63.2865 84.5625 63.4688C84.3802 63.651 84.1198 63.7422 83.7812 63.7422L71.0859 63.5469C70.9297 63.4427 70.7995 63.3385 70.6953 63.2344C70.5911 63.1042 70.5391 62.987 70.5391 62.8828C70.5391 62.5964 70.8255 62.4531 71.3984 62.4531H79.875L81.0859 61.2422C81.4245 60.9036 81.763 60.7344 82.1016 60.7344C82.4401 60.7344 82.7786 60.8646 83.1172 61.125L84.8359 62.5703V62.6875ZM83 57.2188C83 57.5573 82.9089 57.8177 82.7266 58C82.5443 58.1823 82.2839 58.2734 81.9453 58.2734L71.9062 58.0781C71.75 57.974 71.6198 57.8698 71.5156 57.7656C71.4115 57.6354 71.3594 57.5182 71.3594 57.4141C71.3594 57.1276 71.6458 56.9844 72.2188 56.9844H78.0391L79.25 55.7734C79.5885 55.4349 79.9271 55.2656 80.2656 55.2656C80.6042 55.2656 80.9427 55.3958 81.2812 55.6562L83 57.1016V57.2188ZM134.445 89.1328C134.159 88.8724 134.016 88.6771 134.016 88.5469C134.016 88.2344 134.25 88.0391 134.719 87.9609L137.766 87.4141C138.052 87.362 138.273 87.2578 138.43 87.1016C138.612 86.9193 138.703 86.6458 138.703 86.2812V74.2891C138.703 73.9766 138.625 73.7552 138.469 73.625C138.339 73.4688 138.104 73.3906 137.766 73.3906H134.602C134.289 73.3906 134.055 73.4688 133.898 73.625C133.768 73.7552 133.703 73.9896 133.703 74.3281V86.0859C133.703 86.9714 133.312 87.5964 132.531 87.9609L132.102 88.1953C131.841 88.3255 131.62 88.3906 131.438 88.3906C131.255 88.3906 131.086 88.3125 130.93 88.1562C130.773 88 130.695 87.7266 130.695 87.3359V74.3281C130.695 73.9896 130.617 73.7552 130.461 73.625C130.331 73.4688 130.096 73.3906 129.758 73.3906H126.242C125.904 73.3906 125.656 73.4688 125.5 73.625C125.37 73.7552 125.305 73.9896 125.305 74.3281V86.0859C125.305 86.9714 124.914 87.5964 124.133 87.9609L123.703 88.1953C123.443 88.3255 123.221 88.3906 123.039 88.3906C122.857 88.3906 122.688 88.3125 122.531 88.1562C122.375 88 122.297 87.7266 122.297 87.3359V74.3281C122.297 73.9896 122.219 73.7552 122.062 73.625C121.932 73.4688 121.698 73.3906 121.359 73.3906H118.195C117.883 73.3906 117.648 73.4688 117.492 73.625C117.362 73.7552 117.297 73.9896 117.297 74.3281V88.3906C117.297 89.276 116.906 89.901 116.125 90.2656L115.734 90.5C115.474 90.6302 115.253 90.6953 115.07 90.6953C114.888 90.6953 114.719 90.6172 114.562 90.4609C114.406 90.3047 114.328 90.0312 114.328 89.6406V74.3281C114.328 73.9896 114.25 73.7552 114.094 73.625C113.964 73.4688 113.729 73.3906 113.391 73.3906C113.365 73.3906 112.557 73.3255 110.969 73.1953C110.812 73.0911 110.682 72.987 110.578 72.8828C110.474 72.7526 110.422 72.6354 110.422 72.5312C110.422 72.2448 110.708 72.1016 111.281 72.1016H113.391C113.729 72.1016 113.964 72.0365 114.094 71.9062C114.25 71.75 114.328 71.5026 114.328 71.1641V56.7109C114.328 56.3203 114.406 56.0469 114.562 55.8906C114.719 55.7344 114.888 55.6562 115.07 55.6562C115.253 55.6562 115.474 55.7214 115.734 55.8516L117.102 56.5547H138.859L139.133 56.2812C139.497 55.9948 139.849 55.8516 140.188 55.8516C140.526 55.8516 140.878 55.9948 141.242 56.2812L141.789 56.7891L141.945 57.3359C141.763 58.1172 141.672 58.8854 141.672 59.6406V71.5156C141.672 71.724 141.711 71.8672 141.789 71.9453C141.867 72.0234 141.984 72.0755 142.141 72.1016C142.766 71.4505 143.091 71.112 143.117 71.0859C143.404 70.7734 143.703 70.6172 144.016 70.6172C144.328 70.6172 144.654 70.7734 144.992 71.0859L146.281 72.2188V72.3359C146.281 72.6745 146.19 72.9349 146.008 73.1172C145.826 73.2995 145.565 73.3906 145.227 73.3906H142.609C142.271 73.3906 142.023 73.4688 141.867 73.625C141.737 73.7552 141.672 73.9766 141.672 74.2891V87.4531L141.633 88L141.555 88.5859L141.359 89.1328L141.086 89.6406L140.695 90.1094L140.227 90.4609L139.719 90.7734L139.172 90.9297C138.781 90.9818 138.56 91.0078 138.508 91.0078C138.299 91.0078 138.13 90.9427 138 90.8125C137.896 90.7083 137.844 90.5391 137.844 90.3047C137.844 90.0964 137.805 89.9531 137.727 89.875C137.648 89.7969 137.518 89.7448 137.336 89.7188L134.445 89.1328ZM118.195 57.8828C117.883 57.8828 117.648 57.9609 117.492 58.1172C117.362 58.2474 117.297 58.4818 117.297 58.8203V71.1641C117.297 71.5026 117.362 71.75 117.492 71.9062C117.648 72.0365 117.883 72.1016 118.195 72.1016H121.359C121.698 72.1016 121.932 72.0365 122.062 71.9062C122.219 71.75 122.297 71.5026 122.297 71.1641V58.8203C122.297 58.4818 122.219 58.2474 122.062 58.1172C121.932 57.9609 121.698 57.8828 121.359 57.8828H118.195ZM126.242 57.8828C125.904 57.8828 125.656 57.9609 125.5 58.1172C125.37 58.2474 125.305 58.4818 125.305 58.8203V71.1641C125.305 71.5026 125.37 71.75 125.5 71.9062C125.656 72.0365 125.904 72.1016 126.242 72.1016H129.758C130.096 72.1016 130.331 72.0365 130.461 71.9062C130.617 71.75 130.695 71.5026 130.695 71.1641V58.8203C130.695 58.4818 130.617 58.2474 130.461 58.1172C130.331 57.9609 130.096 57.8828 129.758 57.8828H126.242ZM134.602 57.8828C134.289 57.8828 134.055 57.9609 133.898 58.1172C133.768 58.2474 133.703 58.4818 133.703 58.8203V71.1641C133.703 71.5026 133.768 71.75 133.898 71.9062C134.055 72.0365 134.289 72.1016 134.602 72.1016H137.766C138.104 72.1016 138.339 72.0365 138.469 71.9062C138.625 71.75 138.703 71.5026 138.703 71.1641V58.8203C138.703 58.4818 138.625 58.2474 138.469 58.1172C138.339 57.9609 138.104 57.8828 137.766 57.8828H134.602Z" fill="#B29564"/>
<path d="M81.2344 114.562C81.1094 114.562 81.0052 114.516 80.9219 114.422C80.8073 114.307 80.7396 114.104 80.7188 113.812L80.6719 112.688V112.031L80.7188 111.609C80.7708 111.464 80.8385 111.391 80.9219 111.391C81.0052 111.391 81.0729 111.464 81.125 111.609L81.4375 112.562L81.7031 113.297L81.9531 113.438L82.3438 113.578L82.8281 113.703L83.3906 113.781L83.9688 113.797L84.5312 113.75L84.875 113.656L85.1562 113.453L85.3594 113.203L85.5469 112.953L85.6719 112.672L85.7812 112.344L85.8438 111.953L85.875 111.656L85.7344 110.828L85.4062 110.203L84.9219 109.719L84.2812 109.297L82.75 108.562L81.9844 108.109L81.3125 107.516L80.8594 106.656L80.7656 105.578L80.7969 105.188L80.9219 104.734L81.1094 104.297L81.375 103.906L81.6875 103.578L82.0625 103.328L82.4844 103.109L82.6562 103.062L82.8906 102.922L83.3906 102.75L83.8906 102.672L84.375 102.656L84.8594 102.703L85.3125 102.797L85.5938 102.906L86.1406 102.781C86.1615 102.781 86.1823 102.781 86.2031 102.781C86.2969 102.781 86.3646 102.807 86.4062 102.859C86.4583 102.911 86.4896 102.984 86.5 103.078L86.5156 103.312L86.6719 104.781L86.6562 105.125C86.6354 105.188 86.6094 105.234 86.5781 105.266C86.5469 105.297 86.5156 105.312 86.4844 105.312C86.4219 105.312 86.3646 105.26 86.3125 105.156L86.0469 104.734L85.8125 104.312L85.5625 104.203L85.4219 104.078L85.2344 103.938L84.9688 103.812L84.6406 103.703L84.2812 103.625L83.9062 103.562H83.5L83.125 103.625L82.8125 103.75L82.5312 103.969L82.3125 104.203L82.1406 104.453L82.0312 104.719L81.9688 105L81.9375 105.312L81.9531 105.656L82.0156 106.297L82.25 106.75L82.6875 107.141L83.2969 107.5L84.8594 108.266L85.6562 108.766L86.375 109.469L86.8906 110.438L87.0781 111.656L86.9688 112.188L86.7969 112.688L86.5781 113.109L86.3125 113.516L85.9844 113.844L85.5625 114.125L85.3594 114.281L84.7188 114.578L84.0312 114.719L83.3594 114.75L82.6875 114.719L82.0781 114.625L81.5938 114.5C81.3958 114.542 81.276 114.562 81.2344 114.562ZM90.4531 114.625C90.3073 114.521 90.2344 114.432 90.2344 114.359C90.2344 114.245 90.349 114.188 90.5781 114.188H90.8281C90.9635 114.188 91.0573 114.161 91.1094 114.109C91.1719 114.047 91.2031 113.948 91.2031 113.812V108.047C91.2031 107.922 91.1823 107.839 91.1406 107.797C91.099 107.755 91.0521 107.734 91 107.734C90.9792 107.734 90.9271 107.74 90.8438 107.75H90.4844C90.2969 107.667 90.2031 107.583 90.2031 107.5C90.2031 107.469 90.224 107.432 90.2656 107.391C90.3073 107.349 90.3906 107.318 90.5156 107.297L91.9375 107.016C91.9792 107.005 92.0156 107 92.0469 107C92.1406 107 92.2188 107.031 92.2812 107.094C92.3438 107.156 92.3802 107.255 92.3906 107.391V113.812C92.3906 113.948 92.4167 114.047 92.4688 114.109C92.5312 114.161 92.6302 114.188 92.7656 114.188H92.7812L93.1562 114.25C93.2188 114.292 93.2708 114.339 93.3125 114.391C93.3542 114.432 93.375 114.474 93.375 114.516C93.375 114.641 93.2604 114.703 93.0312 114.703L90.4531 114.625ZM91.1719 105.516L90.9688 105.266L90.8438 105.016L90.8281 104.75L90.8438 104.453L90.9688 104.203L90.9844 104.188L91.1719 103.969L91.4688 103.812L91.7969 103.766L92.125 103.812L92.4219 103.969L92.625 104.203L92.7344 104.469L92.7812 104.75L92.7344 105.016L92.625 105.266L92.4219 105.516L92.125 105.672L91.7969 105.719L91.4688 105.672L91.1719 105.516ZM102.078 107.969C101.984 107.969 101.938 107.99 101.938 108.031C101.938 108.052 101.953 108.094 101.984 108.156C101.995 108.167 102.047 108.292 102.141 108.531L102.234 108.75V109.281L102.141 109.781L101.969 110.234L101.734 110.641L101.438 110.984L101.094 111.25L100.719 111.453L100.281 111.578L99.875 111.609L99.5469 111.594H99.25L98.7969 111.578C98.7344 111.557 98.6719 111.547 98.6094 111.547C98.474 111.547 98.349 111.594 98.2344 111.688L98.0938 111.781L97.8594 112.062L97.9062 112.281C97.9167 112.375 97.9583 112.438 98.0312 112.469L98.5312 112.562L98.875 112.594L99.7812 112.609L100.594 112.656L101.281 112.719L101.875 112.812L102.188 112.922L102.719 113.156L103.203 113.641L103.406 114.219L103.375 114.812L103.141 115.359L102.797 115.828L102.328 116.203L101.797 116.516L101.219 116.797L100.641 116.984L100.078 117.125L99.5156 117.188L98.9844 117.203L98.4375 117.156L97.9531 117.031L97.5 116.844L96.7812 116.375L96.5938 115.953L96.5156 115.578V115.188L96.6406 114.812L96.8281 114.5L97.0781 114.219L97.3906 114L97.9844 113.688C98.026 113.667 98.0573 113.646 98.0781 113.625C98.0469 113.604 98.0052 113.589 97.9531 113.578C97.9427 113.568 97.8177 113.5 97.5781 113.375C97.5677 113.375 97.4635 113.297 97.2656 113.141L97.0156 112.812L96.9531 112.375L97.0938 111.984L97.375 111.641C97.6562 111.474 97.8021 111.391 97.8125 111.391C97.8646 111.328 97.8906 111.271 97.8906 111.219C97.8906 111.167 97.8542 111.104 97.7812 111.031C97.7708 111.031 97.6927 110.938 97.5469 110.75C97.4844 110.635 97.4219 110.521 97.3594 110.406C97.276 110.177 97.2344 110.062 97.2344 110.062L97.1406 109.703L97.1094 109.328L97.1406 108.969L97.2344 108.578L97.375 108.203L97.5625 107.875L97.8125 107.578L98.1094 107.359L98.4375 107.172L98.8125 107.062L99.2031 107.016L99.4844 107.047L99.8125 106.953H100.203L100.578 107.031L100.922 107.156L101.312 107.375L102.969 107.391C103.094 107.516 103.156 107.62 103.156 107.703C103.156 107.745 103.141 107.786 103.109 107.828C103.047 107.88 102.943 107.906 102.797 107.906L102.078 107.969ZM99.7344 113.797H98.7656L98.375 114.016L98.0625 114.266L97.7969 114.516L97.6406 114.719L97.5469 114.922L97.5 115.078L97.5625 115.359L97.6719 115.516L97.8281 115.734L98.0469 115.906L98.3281 116.078L98.6875 116.203L99.0625 116.297L99.5312 116.375L100.016 116.391L100.625 116.344L101.078 116.219L101.531 115.984L101.906 115.672L102.188 115.328L102.375 114.953L102.438 114.656L102.422 114.422L102.328 114.266L102.125 114.141L101.641 114L101.125 113.906L100.812 113.875L99.7344 113.797ZM101.016 108.797L100.969 108.594L100.906 108.391L100.797 108.203L100.672 108.047L100.484 107.891L100.281 107.75L100.016 107.609L99.5781 107.438L99.3281 107.547L99.0469 107.703L98.8281 107.859L98.6406 108.016L98.5156 108.188L98.4375 108.375L98.3594 108.594L98.3125 108.828L98.2969 109.094V109.406L98.2656 109.594V109.859L98.3594 110.328L98.4375 110.531L98.5781 110.719L98.75 110.875L98.9844 111.047L99.3125 111.172L99.5625 111.219L99.7969 111.156L100.109 111.031L100.375 110.844L100.609 110.641L100.781 110.422L100.938 110.141L101.031 109.859L101.078 109.578L101.016 108.797ZM108.562 114.625C108.417 114.521 108.344 114.432 108.344 114.359C108.344 114.245 108.458 114.188 108.688 114.188H108.938C109.073 114.188 109.167 114.161 109.219 114.109C109.281 114.047 109.312 113.948 109.312 113.812V109.156L109.266 108.703L109.141 108.391L108.922 108.172L108.625 108.031L108.25 107.969L107.797 108L107.312 108.156L106.812 108.453L106.328 108.859L105.984 109.234V113.812C105.984 113.948 106.01 114.047 106.062 114.109C106.125 114.161 106.224 114.188 106.359 114.188H106.375L106.734 114.25C106.797 114.292 106.849 114.339 106.891 114.391C106.932 114.432 106.953 114.474 106.953 114.516C106.953 114.641 106.839 114.703 106.609 114.703L104.031 114.641C103.969 114.599 103.917 114.557 103.875 114.516C103.833 114.464 103.812 114.417 103.812 114.375C103.812 114.25 103.927 114.188 104.156 114.188H104.406C104.542 114.188 104.635 114.161 104.688 114.109C104.75 114.047 104.781 113.948 104.781 113.812V108.047C104.781 107.922 104.76 107.839 104.719 107.797C104.677 107.755 104.63 107.734 104.578 107.734C104.557 107.734 104.505 107.74 104.422 107.75H104.062C103.875 107.667 103.781 107.583 103.781 107.5C103.781 107.469 103.802 107.432 103.844 107.391C103.885 107.349 103.969 107.318 104.094 107.297L105.516 107.016C105.557 107.005 105.594 107 105.625 107C105.719 107 105.797 107.031 105.859 107.094C105.922 107.156 105.964 107.255 105.984 107.391L106 108.062C106 108.125 106.005 108.177 106.016 108.219L106.328 107.859L106.938 107.406L107.578 107.109L108.234 106.984L108.906 107.031L109.516 107.266L110.031 107.719L110.391 108.359L110.516 109.062V113.812C110.516 113.948 110.542 114.047 110.594 114.109C110.656 114.161 110.755 114.188 110.891 114.188H110.906L111.266 114.25C111.328 114.292 111.38 114.339 111.422 114.391C111.464 114.432 111.484 114.474 111.484 114.516C111.484 114.641 111.37 114.703 111.141 114.703L108.562 114.625ZM126.516 113.703C126.516 113.818 126.536 113.896 126.578 113.938C126.62 113.979 126.661 114 126.703 114C126.755 114 126.807 113.995 126.859 113.984L127.094 113.922C127.146 113.911 127.203 113.906 127.266 113.906C127.339 113.906 127.396 113.927 127.438 113.969C127.479 114.01 127.5 114.062 127.5 114.125C127.5 114.188 127.458 114.281 127.375 114.406L125.844 114.719C125.802 114.729 125.766 114.734 125.734 114.734C125.62 114.734 125.526 114.703 125.453 114.641C125.391 114.568 125.344 114.479 125.312 114.375L125.297 113.734C125.297 113.661 125.292 113.604 125.281 113.562C125.25 113.583 125.203 113.62 125.141 113.672L124.875 113.953L124.25 114.422L123.594 114.734L122.953 114.875L122.328 114.828L121.734 114.594L121.234 114.141L120.922 113.531L120.781 112.766V108.031C120.781 107.896 120.75 107.802 120.688 107.75C120.635 107.688 120.542 107.656 120.406 107.656H119.984C119.859 107.521 119.797 107.411 119.797 107.328C119.797 107.286 119.818 107.245 119.859 107.203C119.911 107.151 120.016 107.125 120.172 107.125H121.438C121.615 107.125 121.75 107.172 121.844 107.266C121.938 107.359 121.984 107.5 121.984 107.688V112.734L122.031 113.188L122.156 113.5L122.344 113.703L122.594 113.828L122.922 113.891L123.359 113.844L123.859 113.672L124.422 113.359L125 112.891L125.312 112.594V108.031C125.312 107.896 125.281 107.802 125.219 107.75C125.167 107.688 125.073 107.656 124.938 107.656H124.516C124.391 107.521 124.328 107.411 124.328 107.328C124.328 107.286 124.349 107.245 124.391 107.203C124.443 107.151 124.547 107.125 124.703 107.125H125.969C126.146 107.125 126.281 107.172 126.375 107.266C126.469 107.359 126.516 107.5 126.516 107.688V113.703ZM127.875 116.906C127.875 116.865 127.896 116.823 127.938 116.781C127.99 116.729 128.094 116.703 128.25 116.703H128.484C128.62 116.703 128.714 116.672 128.766 116.609C128.828 116.557 128.859 116.464 128.859 116.328V108.125C128.859 108.01 128.839 107.938 128.797 107.906C128.766 107.865 128.724 107.844 128.672 107.844C128.63 107.844 128.578 107.854 128.516 107.875C128.401 107.885 128.281 107.896 128.156 107.906C127.958 107.823 127.859 107.74 127.859 107.656C127.859 107.625 127.88 107.589 127.922 107.547C127.953 107.505 128.026 107.469 128.141 107.438L129.594 107.031C129.635 107.021 129.677 107.016 129.719 107.016C129.812 107.016 129.885 107.047 129.938 107.109C130.01 107.172 130.052 107.26 130.062 107.375L130.141 108.078L130.578 107.609L131.266 107.234L131.953 107.062H131.969L132.672 107.109L133.328 107.344L133.906 107.719L134.406 108.234L134.781 108.859L134.984 109.344L135.188 110.781L135.062 112.047L134.625 113.094L133.984 113.906L133.203 114.469L133.188 114.484L132.328 114.75L131.453 114.734L130.578 114.344L130.25 114.047C130.188 113.995 130.135 113.964 130.094 113.953C130.073 113.984 130.062 114.047 130.062 114.141V116.328C130.062 116.464 130.089 116.557 130.141 116.609C130.203 116.672 130.302 116.703 130.438 116.703H130.859C130.984 116.839 131.047 116.948 131.047 117.031C131.047 117.073 131.026 117.115 130.984 117.156C130.932 117.208 130.828 117.234 130.672 117.234L128.062 117.219C127.938 117.094 127.875 116.99 127.875 116.906ZM131.922 108.078L131.438 108.125L130.906 108.297L130.344 108.672L130.062 108.953V112.859L130.422 113.438L130.938 113.797L131.422 113.938L131.984 113.859L132.547 113.609L133.047 113.141L133.469 112.516L133.734 111.719L133.828 110.75L133.656 109.75L133.547 109.344L133.359 108.953L133.094 108.625L132.75 108.344L132.359 108.172L131.922 108.078Z" fill="#B29564"/>
<g clip-path="url(#clip1_760_26085)">
<path d="M125.453 126.794C127.924 125.163 130.624 125.69 133.436 125.893C133.147 125.622 132.859 125.351 132.602 125.111C133.299 124.872 133.959 125.2 134.442 125.955C134.713 126.38 135.099 126.822 135.542 127.039C137.022 127.764 138.534 128.431 140.065 129.041C141.954 129.791 143.88 129.76 145.748 128.961C146.231 128.756 146.706 128.4 147.031 127.992C147.849 126.962 147.569 125.893 146.351 125.048C147.806 124.929 148.789 126.004 148.423 127.373C148.074 128.682 147.123 129.498 145.903 129.985C144.074 130.718 142.185 130.798 140.274 130.313C139.842 130.205 139.419 130.074 138.991 129.951C138.142 133.017 135.611 133.944 133.113 131.936C131.702 130.804 130.387 130.356 128.601 130.544C126.533 130.764 124.695 129.774 122.892 128.89C122.05 128.477 121.238 128.006 120.409 127.57C117.726 126.161 114.926 125.913 112.02 126.765C111.883 126.805 111.746 126.845 111.592 126.811C113.246 125.639 115.126 125.593 117.052 125.75C118.961 125.907 120.687 126.574 122.401 127.39C124.03 128.166 125.733 128.81 127.45 129.369C128.207 129.615 129.084 129.509 129.942 129.409C128.679 127.878 127.038 127.361 125.13 127.496C127.144 126.822 128.87 127.507 130.41 128.716C130.993 129.173 131.525 129.315 132.062 128.907C132.596 128.499 133.007 127.929 133.47 127.43C132.976 127.173 132.507 126.822 131.979 126.674C129.802 126.052 127.63 126.181 125.458 126.797L125.453 126.794ZM132.067 130.376C133.085 130.944 134.082 131.645 135.188 132.062C135.785 132.287 136.656 132.204 137.239 131.928C137.719 131.699 138.056 131.012 138.259 130.459C138.354 130.205 138.074 129.635 137.799 129.461C136.933 128.913 135.993 128.468 135.065 128.023C134.882 127.935 134.519 127.923 134.396 128.04C133.659 128.728 132.965 129.463 132.065 130.379L132.067 130.376Z" fill="#B29564"/>
<path d="M77.0864 130.154C75.6406 130.293 74.209 130.522 72.7747 130.547C71.3574 130.573 69.9859 130.191 68.8915 129.247C68.3944 128.819 67.9486 128.254 67.6857 127.661C67.0628 126.249 68.0458 124.989 69.9059 125.06C68.783 125.451 68.4401 126.138 68.5687 127.039C68.6944 127.94 69.2544 128.545 70.0745 128.902C71.8717 129.68 73.7262 129.811 75.5777 129.155C76.9492 128.671 78.2951 128.103 79.6151 127.496C80.4695 127.102 81.3753 126.788 81.7753 125.73C82.021 125.083 82.7639 124.906 83.5326 125.048C83.1811 125.325 82.8754 125.568 82.5696 125.807C82.5839 125.896 82.6011 125.981 82.6154 126.07C85.3384 125.79 88.1157 125.094 90.6016 126.828C87.8472 126.047 85.147 125.975 82.4782 127.27C82.8011 128.414 83.604 128.913 84.5869 129.13C84.8527 129.187 85.2413 128.947 85.4984 128.75C86.7985 127.761 88.2243 127.153 89.8959 127.219C90.1073 127.227 90.3188 127.302 90.5388 127.416C88.7901 127.498 87.2128 127.921 85.8813 129.389C87.3557 129.714 88.6044 129.521 89.8016 129.027C91.416 128.36 93.0132 127.652 94.5991 126.922C97.0535 125.787 99.6137 125.405 102.274 125.887C103.043 126.027 103.768 126.4 104.477 126.785C102.437 126.249 100.382 125.978 98.3536 126.56C97.0278 126.942 95.7791 127.59 94.5105 128.152C93.0932 128.779 91.7103 129.492 90.2759 130.08C88.7701 130.696 87.1842 130.684 85.5813 130.47C85.1984 130.419 84.7212 130.593 84.3812 130.812C83.7326 131.229 83.1897 131.805 82.5382 132.219C80.078 133.779 77.655 132.812 77.0807 130.154L77.0864 130.154ZM83.8383 130.214C83.0982 129.515 82.3896 128.959 81.8324 128.28C81.4753 127.849 81.2353 127.826 80.7981 128.072C80.0409 128.497 79.2837 128.936 78.4808 129.267C77.5836 129.637 77.5836 130.276 77.8322 130.986C78.135 131.859 78.8837 132.147 79.7409 132.199C81.5038 132.307 82.6754 131.26 83.8383 130.211L83.8383 130.214Z" fill="#B29564"/>
<path d="M96.1506 129.184C95.3248 131.015 96.282 132.395 98.3307 132.17C99.1279 132.082 99.9537 131.711 100.631 131.269C101.52 130.693 102.297 129.945 103.083 129.23C106.1 126.469 109.954 126.48 112.949 129.252C113.752 129.997 114.606 130.693 115.469 131.369C116.318 132.033 117.306 132.324 118.389 132.181C120.027 131.965 120.655 130.647 119.807 129.252C119.881 129.21 119.958 129.17 120.032 129.127C120.247 129.503 120.567 129.854 120.655 130.256C120.827 131.026 120.589 131.731 119.892 132.19C118.572 133.06 117.141 133.245 115.761 132.447C114.82 131.905 114.009 131.14 113.166 130.442C112.72 130.071 112.349 129.617 111.92 129.227C109.417 126.937 106.511 126.971 104.011 129.269C102.851 130.336 101.705 131.437 100.419 132.341C99.0994 133.268 97.2335 133.074 96.0506 132.133C95.0048 131.303 95.0534 129.877 96.1506 129.19L96.1506 129.184Z" fill="#B29564"/>
</g>
<path d="M175.5 81.5H205.5" stroke="#B29564" stroke-width="3"/>
<defs>
<clipPath id="clip0_760_26085">
<rect width="85" height="8" fill="white" transform="translate(65.5 30)"/>
</clipPath>
<clipPath id="clip1_760_26085">
<rect width="81" height="7.99999" fill="white" transform="translate(148.5 133) rotate(-180)"/>
</clipPath>
</defs>
</svg>
